<?xml version="1.0" encoding="UTF-8"?>
<svg version="1.1" xmlns="http://www.w3.org/2000/svg" width="392" height="392">
<path d="M0 0 C1.22595788 -0.00453111 2.45191576 -0.00906223 3.71502388 -0.01373065 C7.10605467 -0.02418139 10.49687292 -0.02570383 13.88790464 -0.02334189 C17.54997486 -0.02293294 21.2120137 -0.03398052 24.87406921 -0.04345703 C32.04504855 -0.06005215 39.215995 -0.06556594 46.38699193 -0.06668179 C52.21909836 -0.06763315 58.05119396 -0.07174788 63.88329697 -0.07808304 C80.43268785 -0.09569291 96.98205283 -0.10492254 113.53145315 -0.10342209 C114.86902181 -0.10330222 114.86902181 -0.10330222 116.23361206 -0.10317993 C117.57282181 -0.10305729 117.57282181 -0.10305729 118.9390863 -0.10293217 C133.39875669 -0.10211978 147.85832278 -0.12124627 162.31796302 -0.14945666 C177.1790479 -0.17822048 192.04008199 -0.19199497 206.90119541 -0.19026911 C215.23886385 -0.18960632 223.57642301 -0.19504954 231.91406631 -0.21662521 C239.01501089 -0.2348833 246.11579668 -0.23914668 253.21675463 -0.22560637 C256.83565115 -0.21909937 260.45424345 -0.21887642 264.07311058 -0.23631287 C268.00729396 -0.25507247 271.94103882 -0.24242951 275.87524414 -0.22705078 C277.0037778 -0.23733791 278.13231146 -0.24762503 279.29504311 -0.25822389 C295.18089586 -0.12167979 309.3394679 5.94479298 320.52731323 17.16854858 C331.023616 28.51520224 335.12699766 42.33275569 335.08599854 57.44885254 C335.09052965 58.67481042 335.09506076 59.9007683 335.09972918 61.16387641 C335.11017993 64.5549072 335.11170236 67.94572546 335.10934043 71.33675718 C335.10893147 74.9988274 335.11997905 78.66086624 335.12945557 82.32292175 C335.14605069 89.49390109 335.15156448 96.66484754 335.15268032 103.83584447 C335.15363169 109.6679509 335.15774642 115.5000465 335.16408157 121.33214951 C335.18169145 137.88154039 335.19092107 154.43090537 335.18942063 170.98030569 C335.18934071 171.87201813 335.1892608 172.76373057 335.18917847 173.6824646 C335.18909671 174.5752711 335.18901494 175.4680776 335.18893071 176.38793884 C335.18811831 190.84760923 335.2072448 205.30717532 335.2354552 219.76681556 C335.26421901 234.62790044 335.27799351 249.48893453 335.27626765 264.35004795 C335.27560486 272.68771639 335.28104807 281.02527555 335.30262375 289.36291885 C335.32088184 296.46386343 335.32514521 303.56464922 335.3116049 310.66560717 C335.30509791 314.28450369 335.30487496 317.90309599 335.3223114 321.52196312 C335.341071 325.4561465 335.32842804 329.38989136 335.31304932 333.32409668 C335.32333644 334.45263034 335.33362357 335.581164 335.34422243 336.74389565 C335.20767832 352.6297484 329.14120555 366.78832044 317.91744995 377.97616577 C306.57079629 388.47246854 292.75324285 392.5758502 277.637146 392.53485107 C276.41118812 392.53938219 275.18523024 392.5439133 273.92212212 392.54858172 C270.53109133 392.55903247 267.14027308 392.5605549 263.74924135 392.55819297 C260.08717114 392.55778401 256.42513229 392.56883159 252.76307678 392.57830811 C245.59209745 392.59490323 238.421151 392.60041702 231.25015406 392.60153286 C225.41804764 392.60248423 219.58595203 392.60659896 213.75384903 392.61293411 C197.20445814 392.63054399 180.65509317 392.63977361 164.10569285 392.63827316 C162.76812419 392.6381533 162.76812419 392.6381533 161.40353394 392.63803101 C160.06432419 392.63790836 160.06432419 392.63790836 158.69805969 392.63778324 C144.2383893 392.63697085 129.77882321 392.65609734 115.31918298 392.68430774 C100.45809809 392.71307155 85.597064 392.72684605 70.73595059 392.72512019 C62.39828215 392.7244574 54.06072298 392.72990061 45.72307968 392.75147629 C38.6221351 392.76973437 31.52134932 392.77399775 24.42039137 392.76045744 C20.80149485 392.75395045 17.18290254 392.7537275 13.56403542 392.77116394 C9.62985204 392.78992354 5.69610718 392.77728058 1.76190186 392.76190186 C0.6333682 392.77218898 -0.49516546 392.78247611 -1.65789711 392.79307497 C-17.54374986 392.65653086 -31.70232191 386.59005809 -42.89016724 375.36630249 C-53.38647001 364.01964883 -57.48985166 350.20209538 -57.44885254 335.08599854 C-57.45338365 333.86004066 -57.45791476 332.63408278 -57.46258318 331.37097466 C-57.47303393 327.97994387 -57.47455637 324.58912562 -57.47219443 321.19809389 C-57.47178548 317.53602368 -57.48283306 313.87398483 -57.49230957 310.21192932 C-57.50890469 303.04094999 -57.51441848 295.87000354 -57.51553433 288.6990066 C-57.51648569 282.86690018 -57.52060042 277.03480457 -57.52693558 271.20270157 C-57.54454545 254.65331068 -57.55377507 238.10394571 -57.55227463 221.55454539 C-57.55219472 220.66283295 -57.5521148 219.77112051 -57.55203247 218.85238647 C-57.55195071 217.95957997 -57.55186895 217.06677347 -57.55178471 216.14691223 C-57.55097232 201.68724184 -57.5700988 187.22767575 -57.5983092 172.76803552 C-57.62707302 157.90695063 -57.64084751 143.04591654 -57.63912165 128.18480313 C-57.63845886 119.84713469 -57.64390208 111.50957552 -57.66547775 103.17193222 C-57.68373584 96.07098764 -57.68799922 88.97020186 -57.67445891 81.8692439 C-57.66795191 78.25034739 -57.66772896 74.63175508 -57.68516541 71.01288795 C-57.70392501 67.07870458 -57.69128204 63.14495972 -57.67590332 59.21075439 C-57.69133401 57.5179539 -57.69133401 57.5179539 -57.70707643 55.79095542 C-57.57053233 39.90510268 -51.50405956 25.74653063 -40.28030396 14.5586853 C-28.93365029 4.06238253 -15.11609685 -0.04099912 0 0 Z " fill="#934BAC" transform="translate(57.181427001953125,-0.267425537109375)"/>
<path d="M0 0 C1.05906859 -0.00445668 1.05906859 -0.00445668 2.13953251 -0.0090034 C4.51148555 -0.01769261 6.88338813 -0.01919886 9.25535583 -0.02069092 C10.95383818 -0.0253191 12.65231947 -0.03034376 14.35079956 -0.03573608 C18.97098032 -0.04886596 23.59114654 -0.05530671 28.21134305 -0.05974674 C31.09947419 -0.06267778 33.98760137 -0.06678275 36.87573051 -0.07125092 C45.91634464 -0.08493017 54.95694968 -0.09459355 63.99757344 -0.09845281 C74.42466398 -0.10292849 84.85162311 -0.12045184 95.27867371 -0.1494534 C103.34252075 -0.17110093 111.4063309 -0.1811588 119.47020668 -0.18249393 C124.28389565 -0.18354017 129.09746115 -0.18940889 133.91111946 -0.20731354 C138.44440066 -0.22384633 142.9774663 -0.22592453 147.51076698 -0.21717453 C149.16912159 -0.21640682 150.82748803 -0.22071161 152.48581314 -0.23063278 C166.74493701 -0.31089328 178.0906039 1.42378564 188.85081482 11.45294189 C194.07023942 16.94644587 196.4761951 22.64500527 197.10081482 30.14044189 C198.25581482 30.20231689 199.41081482 30.26419189 200.60081482 30.32794189 C207.57737485 31.24007165 212.30121883 34.77440819 216.53831482 40.26544189 C219.93014503 45.01585259 220.260417 49.04965882 220.29368591 54.75787354 C220.3018634 55.5322879 220.31004089 56.30670227 220.31846619 57.10458374 C220.34329396 59.6699141 220.35983396 62.23518901 220.37425232 64.80059814 C220.379576 65.67900297 220.38489967 66.5574078 220.39038467 67.46243095 C220.41711131 72.11640423 220.43648341 76.7703508 220.45091248 81.42437744 C220.46422357 85.26446502 220.49202417 89.10401767 220.53294373 92.94390869 C220.58244913 97.58993022 220.60705598 102.23546848 220.61413956 106.88174248 C220.62082415 108.6458711 220.63597288 110.40999012 220.66003036 112.17396736 C220.91163583 131.74721937 220.91163583 131.74721937 213.62239075 139.76704407 C208.41091575 144.47100153 203.97029159 145.40983314 197.10081482 145.14044189 C196.76050232 146.84200439 196.76050232 146.84200439 196.41331482 148.57794189 C194.30202716 156.8618136 190.21044288 163.33703616 183.10081482 168.14044189 C175.44578583 172.63554613 168.60321208 174.43951007 159.76585388 174.31646729 C158.84469788 174.31205627 157.92354187 174.30764526 156.97447205 174.30310059 C154.980718 174.29328011 152.98698056 174.27943844 150.9932785 174.26201057 C146.74433745 174.22951689 142.49563781 174.23204158 138.24659348 174.23229885 C130.34450122 174.23215541 122.44302965 174.21704793 114.54124451 174.144104 C109.03554259 174.09462339 103.53128505 174.08920199 98.02542877 174.11224174 C95.93473693 174.11280853 93.84397279 174.09723608 91.75353241 174.06480598 C78.35300844 173.49093838 78.35300844 173.49093838 66.92332458 179.55084229 C65.61228133 181.04923015 64.3311962 182.57514248 63.10081482 184.14044189 C61.34523273 185.61709972 59.57793771 187.08022877 57.78831482 188.51544189 C53.68107702 191.84062454 49.62603535 195.2171346 45.60081482 198.64044189 C39.82582657 203.54674032 33.99148113 208.37315586 28.10081482 213.14044189 C26.79177185 214.24259033 26.79177185 214.24259033 25.45628357 215.36700439 C23.10081482 217.14044189 23.10081482 217.14044189 20.41331482 217.57794189 C19.65018982 217.43356689 18.88706482 217.28919189 18.10081482 217.14044189 C16.07114682 214.09593989 15.85225181 213.53767861 15.87376404 210.12799072 C15.8739151 209.32738724 15.87406616 208.52678375 15.8742218 207.70191956 C15.88454437 206.84245224 15.89486694 205.98298492 15.90550232 205.09747314 C15.90833221 204.21387619 15.91116211 203.33027924 15.91407776 202.41990662 C15.92527385 199.59744735 15.95037731 196.77530527 15.97581482 193.95294189 C15.98584536 192.03953502 15.99497108 190.12612317 16.00315857 188.21270752 C16.02521131 183.52183008 16.0597372 178.83118977 16.10081482 174.14044189 C15.1796991 174.16400757 15.1796991 174.16400757 14.23997498 174.18804932 C11.40201893 174.25120383 8.56421149 174.28968366 5.72581482 174.32794189 C4.76030701 174.35307861 3.79479919 174.37821533 2.80003357 174.40411377 C-6.9697285 174.50246708 -16.23846564 172.52702929 -23.89918518 166.14044189 C-31.10572396 158.69810635 -36.00110313 148.9551244 -36.03962708 138.47476196 C-36.04533722 137.54132965 -36.05104736 136.60789734 -36.05693054 135.6461792 C-36.0580484 134.62898804 -36.05916626 133.61179688 -36.06031799 132.56378174 C-36.0652829 131.48686066 -36.0702478 130.40993958 -36.07536316 129.30038452 C-36.08997905 125.73404299 -36.09678678 122.16774597 -36.10231018 118.60137939 C-36.10806324 116.11998493 -36.11382095 113.63859048 -36.11958313 111.15719604 C-36.13009227 105.95027459 -36.13593514 100.74336856 -36.13941956 95.53643799 C-36.14411056 88.87868417 -36.16890696 82.22116492 -36.19739151 75.56346703 C-36.21605895 70.43492039 -36.22122574 65.30642274 -36.22275543 60.177845 C-36.22577451 57.7243602 -36.23377775 55.27087612 -36.24694061 52.81742477 C-36.26408234 49.37594979 -36.2621005 45.93497013 -36.25563049 42.49346924 C-36.26945267 40.98590057 -36.26945267 40.98590057 -36.28355408 39.44787598 C-36.21447066 27.65909768 -32.66387753 18.2108779 -24.77418518 9.45294189 C-18.1206314 3.04852999 -9.04689063 0.02123388 0 0 Z " fill="#FDFCFD" transform="translate(110.89918518066406,94.85955810546875)"/>
<path d="M0 0 C0.72000523 -0.00523668 1.44001047 -0.01047336 2.18183404 -0.01586872 C4.58907813 -0.03084349 6.99610918 -0.03157332 9.40339661 -0.03224182 C11.13173276 -0.03986514 12.86006553 -0.04829294 14.58839417 -0.0574646 C19.28077519 -0.07940266 23.97309105 -0.08820787 28.66551757 -0.09329104 C31.59956301 -0.0969362 34.53359144 -0.10317718 37.46763039 -0.11029243 C47.71071242 -0.13478699 57.95374382 -0.14783831 68.19685364 -0.15138245 C77.73254029 -0.1550151 87.26790455 -0.1848911 96.80349272 -0.22678703 C104.99902227 -0.26152792 113.1944452 -0.27693156 121.39004785 -0.27762848 C126.28092062 -0.27842016 131.17146513 -0.28710837 136.06226158 -0.31562614 C140.66627664 -0.34187108 145.26969283 -0.34397629 149.87374878 -0.3279705 C151.55791344 -0.32616097 153.24211303 -0.33280184 154.92620277 -0.34878922 C165.51309251 -0.44311638 173.68427683 0.38996817 182.21907043 7.26634216 C182.74371887 7.88767029 183.26836731 8.50899841 183.80891418 9.14915466 C184.35676575 9.76532654 184.90461731 10.38149841 185.46907043 11.01634216 C187.16791659 14.01919562 187.32157248 16.8778896 187.74641418 20.27415466 C186.88280777 20.27562122 186.01920135 20.27708778 185.12942505 20.27859879 C164.10495947 20.31566874 143.08065508 20.37468604 122.05632019 20.4580574 C111.88905069 20.4978475 101.72185859 20.53024017 91.55451965 20.54515076 C82.69148822 20.5581674 73.82862709 20.58513245 64.96569157 20.62876773 C60.27386601 20.6513822 55.5822505 20.66706535 50.8903656 20.66603851 C46.47108877 20.6652919 42.05227626 20.68324333 37.63311958 20.71532249 C36.01426881 20.72381711 34.39536593 20.72557438 32.77650261 20.71995735 C22.83656551 20.69007146 15.79947802 21.00712298 7.93391418 27.64915466 C3.50469465 32.96421811 2.30176791 37.54393834 2.35823059 44.35569763 C2.35034515 45.53742554 2.35034515 45.53742554 2.34230042 46.74302673 C2.32915136 49.33433662 2.33782193 51.92502656 2.34797668 54.51634216 C2.34595408 56.32706316 2.34304108 58.13778337 2.33927917 59.94850159 C2.33486238 63.7395861 2.34126459 67.53045818 2.3553009 71.32151794 C2.37236791 76.16570448 2.36256331 81.0093914 2.34458351 85.85355949 C2.33370733 89.59235856 2.33720998 93.33104057 2.34496689 97.06984329 C2.34695958 98.85510951 2.34454254 100.64038656 2.33752823 102.42564011 C2.32985312 104.92865095 2.34160285 107.43087026 2.35823059 109.93382263 C2.3521579 110.66239471 2.34608521 111.3909668 2.33982849 112.14161682 C2.41180227 118.03164225 3.56113743 123.64776636 7.43000793 128.29759216 C8.29819153 128.9666156 8.29819153 128.9666156 9.18391418 129.64915466 C9.76012512 130.11063904 10.33633606 130.57212341 10.93000793 131.04759216 C14.39210862 133.3854408 17.09300603 134.51793541 21.29328918 134.68821716 C22.05480286 134.72382751 22.81631653 134.75943787 23.60090637 134.79612732 C24.55642395 134.83012634 25.51194153 134.86412537 26.49641418 134.89915466 C29.54891418 135.02290466 32.60141418 135.14665466 35.74641418 135.27415466 C35.74641418 145.17415466 35.74641418 155.07415466 35.74641418 165.27415466 C39.5749194 162.97705153 42.1913318 161.11652251 45.37141418 158.14915466 C49.68970196 154.18965638 54.13525304 150.45773887 58.71516418 146.80540466 C61.70768587 144.52354204 61.70768587 144.52354204 63.30351257 142.08911133 C67.39232504 137.10887025 70.79388027 135.1182865 77.13136292 134.47956848 C84.1202198 134.1108256 91.10418472 134.26191663 98.09797668 134.39524841 C100.6844104 134.41204946 103.2708729 134.42485355 105.85734558 134.43383789 C111.94933562 134.46459063 118.03963127 134.53538039 124.13098562 134.6259833 C131.07162614 134.72695379 138.01234098 134.77615666 144.95353436 134.82124221 C159.21861467 134.91504701 173.48246199 135.07311375 187.74641418 135.27415466 C187.06572753 140.18745161 186.14224961 142.66160105 182.80891418 146.39915466 C181.74350403 147.64052185 181.74350403 147.64052185 180.65657043 148.90696716 C173.86439285 154.4318794 166.43871054 155.8693644 157.88142395 155.67723083 C156.95153656 155.67311188 156.02164917 155.66899292 155.06358337 155.66474915 C153.06276776 155.65406373 151.06198289 155.63462867 149.06132698 155.60718346 C145.88574572 155.56645554 142.71129031 155.55535218 139.53546143 155.55255127 C130.51313923 155.54084247 121.49157635 155.48830902 112.46980286 155.38768005 C106.93365005 155.32800414 101.39877427 155.31246673 95.8623333 155.32383156 C93.76405005 155.31939762 91.66572872 155.2982954 89.56779671 155.25964928 C75.90559395 154.7473116 75.90559395 154.7473116 64.09138489 160.65281677 C62.60604856 162.1576061 61.15159573 163.69425601 59.74641418 165.27415466 C58.61113566 166.26181814 57.45968817 167.23154813 56.28547668 168.17259216 C55.32383606 168.98985779 54.36219543 169.80712341 53.37141418 170.64915466 C52.27898242 171.57625703 51.18653398 172.50333975 50.09407043 173.43040466 C49.54638 173.89575623 48.99868958 174.36110779 48.43440247 174.84056091 C45.56202361 177.28004726 42.68542582 179.71454432 39.80891418 182.14915466 C39.28958313 182.58920837 38.77025208 183.02926208 38.23518372 183.48265076 C36.74042735 184.74825928 35.24343615 186.01122681 33.74641418 187.27415466 C33.2048468 187.7462738 32.66327942 188.21839294 32.1053009 188.70481873 C27.9628144 192.27415466 27.9628144 192.27415466 25.74641418 192.27415466 C25.72135803 191.21913757 25.69630188 190.16412048 25.67048645 189.07713318 C25.5765731 185.17644839 25.47631385 181.27594841 25.37409973 177.37547302 C25.33068979 175.68476167 25.2890193 173.99400476 25.24909973 172.3032074 C25.19154324 169.8780186 25.1278077 167.45306051 25.06282043 165.02806091 C25.04610794 164.26763992 25.02939545 163.50721893 25.01217651 162.72375488 C25.22550151 159.20333435 25.22550151 159.20333435 23.74641418 156.27415466 C21.76845689 156.15214947 19.78647946 156.09437642 17.80500793 156.06321716 C15.96906067 156.0206781 15.96906067 156.0206781 14.09602356 155.97727966 C11.51542922 155.92574508 8.93468185 155.88131759 6.35383606 155.84446716 C-2.81528024 155.61440047 -9.92265517 154.95690796 -17.00358582 148.58665466 C-17.72030457 147.96403748 -18.43702332 147.34142029 -19.17546082 146.69993591 C-25.03933136 139.85507951 -25.84130226 133.49573472 -25.78703308 124.67674255 C-25.79564865 123.53910965 -25.80426422 122.40147675 -25.81314087 121.22937012 C-25.83576338 117.48494942 -25.82906814 113.7412794 -25.81999207 109.99681091 C-25.8252293 107.38421406 -25.83150615 104.77161909 -25.83877563 102.1590271 C-25.85060057 96.68927133 -25.84495886 91.21972769 -25.83000183 85.74998474 C-25.8130845 79.4456636 -25.82891794 73.14203511 -25.86122471 66.8377896 C-25.8912302 60.74978149 -25.89308696 54.6620883 -25.88372612 48.57401848 C-25.88290761 45.99411048 -25.88975161 43.41418796 -25.90449715 40.83432198 C-25.9219759 37.22269284 -25.90736988 33.61253221 -25.88468933 30.0009613 C-25.89638153 28.9425 -25.90807373 27.8840387 -25.92012024 26.79350281 C-25.81667394 18.67014854 -23.56761503 13.03382038 -18.19108582 6.93431091 C-17.55171082 6.40708435 -16.91233582 5.87985779 -16.25358582 5.33665466 C-15.61421082 4.79138123 -14.97483582 4.24610779 -14.31608582 3.68431091 C-9.63433624 0.48334198 -5.61809053 0.02029024 0 0 Z " fill="#934DAF" transform="translate(110.25358581542969,104.72584533691406)"/>
<path d="M0 0 C1.22595788 -0.00453111 2.45191576 -0.00906223 3.71502388 -0.01373065 C7.10605467 -0.02418139 10.49687292 -0.02570383 13.88790464 -0.02334189 C17.54997486 -0.02293294 21.2120137 -0.03398052 24.87406921 -0.04345703 C32.04504855 -0.06005215 39.215995 -0.06556594 46.38699193 -0.06668179 C52.21909836 -0.06763315 58.05119396 -0.07174788 63.88329697 -0.07808304 C80.43268785 -0.09569291 96.98205283 -0.10492254 113.53145315 -0.10342209 C114.86902181 -0.10330222 114.86902181 -0.10330222 116.23361206 -0.10317993 C117.57282181 -0.10305729 117.57282181 -0.10305729 118.9390863 -0.10293217 C133.39875669 -0.10211978 147.85832278 -0.12124627 162.31796302 -0.14945666 C177.1790479 -0.17822048 192.04008199 -0.19199497 206.90119541 -0.19026911 C215.23886385 -0.18960632 223.57642301 -0.19504954 231.91406631 -0.21662521 C239.01501089 -0.2348833 246.11579668 -0.23914668 253.21675463 -0.22560637 C256.83565115 -0.21909937 260.45424345 -0.21887642 264.07311058 -0.23631287 C268.00729396 -0.25507247 271.94103882 -0.24242951 275.87524414 -0.22705078 C277.0037778 -0.23733791 278.13231146 -0.24762503 279.29504311 -0.25822389 C295.18089586 -0.12167979 309.3394679 5.94479298 320.52731323 17.16854858 C331.023616 28.51520224 335.12699766 42.33275569 335.08599854 57.44885254 C335.09052965 58.67481042 335.09506076 59.9007683 335.09972918 61.16387641 C335.11017993 64.5549072 335.11170236 67.94572546 335.10934043 71.33675718 C335.10893147 74.9988274 335.11997905 78.66086624 335.12945557 82.32292175 C335.14605069 89.49390109 335.15156448 96.66484754 335.15268032 103.83584447 C335.15363169 109.6679509 335.15774642 115.5000465 335.16408157 121.33214951 C335.18169145 137.88154039 335.19092107 154.43090537 335.18942063 170.98030569 C335.18934071 171.87201813 335.1892608 172.76373057 335.18917847 173.6824646 C335.18909671 174.5752711 335.18901494 175.4680776 335.18893071 176.38793884 C335.18811831 190.84760923 335.2072448 205.30717532 335.2354552 219.76681556 C335.26421901 234.62790044 335.27799351 249.48893453 335.27626765 264.35004795 C335.27560486 272.68771639 335.28104807 281.02527555 335.30262375 289.36291885 C335.32088184 296.46386343 335.32514521 303.56464922 335.3116049 310.66560717 C335.30509791 314.28450369 335.30487496 317.90309599 335.3223114 321.52196312 C335.341071 325.4561465 335.32842804 329.38989136 335.31304932 333.32409668 C335.32333644 334.45263034 335.33362357 335.581164 335.34422243 336.74389565 C335.20767832 352.6297484 329.14120555 366.78832044 317.91744995 377.97616577 C306.57079629 388.47246854 292.75324285 392.5758502 277.637146 392.53485107 C276.41118812 392.53938219 275.18523024 392.5439133 273.92212212 392.54858172 C270.53109133 392.55903247 267.14027308 392.5605549 263.74924135 392.55819297 C260.08717114 392.55778401 256.42513229 392.56883159 252.76307678 392.57830811 C245.59209745 392.59490323 238.421151 392.60041702 231.25015406 392.60153286 C225.41804764 392.60248423 219.58595203 392.60659896 213.75384903 392.61293411 C197.20445814 392.63054399 180.65509317 392.63977361 164.10569285 392.63827316 C162.76812419 392.6381533 162.76812419 392.6381533 161.40353394 392.63803101 C160.06432419 392.63790836 160.06432419 392.63790836 158.69805969 392.63778324 C144.2383893 392.63697085 129.77882321 392.65609734 115.31918298 392.68430774 C100.45809809 392.71307155 85.597064 392.72684605 70.73595059 392.72512019 C62.39828215 392.7244574 54.06072298 392.72990061 45.72307968 392.75147629 C38.6221351 392.76973437 31.52134932 392.77399775 24.42039137 392.76045744 C20.80149485 392.75395045 17.18290254 392.7537275 13.56403542 392.77116394 C9.62985204 392.78992354 5.69610718 392.77728058 1.76190186 392.76190186 C0.6333682 392.77218898 -0.49516546 392.78247611 -1.65789711 392.79307497 C-17.54374986 392.65653086 -31.70232191 386.59005809 -42.89016724 375.36630249 C-53.38647001 364.01964883 -57.48985166 350.20209538 -57.44885254 335.08599854 C-57.45338365 333.86004066 -57.45791476 332.63408278 -57.46258318 331.37097466 C-57.47303393 327.97994387 -57.47455637 324.58912562 -57.47219443 321.19809389 C-57.47178548 317.53602368 -57.48283306 313.87398483 -57.49230957 310.21192932 C-57.50890469 303.04094999 -57.51441848 295.87000354 -57.51553433 288.6990066 C-57.51648569 282.86690018 -57.52060042 277.03480457 -57.52693558 271.20270157 C-57.54454545 254.65331068 -57.55377507 238.10394571 -57.55227463 221.55454539 C-57.55219472 220.66283295 -57.5521148 219.77112051 -57.55203247 218.85238647 C-57.55195071 217.95957997 -57.55186895 217.06677347 -57.55178471 216.14691223 C-57.55097232 201.68724184 -57.5700988 187.22767575 -57.5983092 172.76803552 C-57.62707302 157.90695063 -57.64084751 143.04591654 -57.63912165 128.18480313 C-57.63845886 119.84713469 -57.64390208 111.50957552 -57.66547775 103.17193222 C-57.68373584 96.07098764 -57.68799922 88.97020186 -57.67445891 81.8692439 C-57.66795191 78.25034739 -57.66772896 74.63175508 -57.68516541 71.01288795 C-57.70392501 67.07870458 -57.69128204 63.14495972 -57.67590332 59.21075439 C-57.69133401 57.5179539 -57.69133401 57.5179539 -57.70707643 55.79095542 C-57.57053233 39.90510268 -51.50405956 25.74653063 -40.28030396 14.5586853 C-28.93365029 4.06238253 -15.11609685 -0.04099912 0 0 Z M-41.181427 22.26742554 C-50.84158075 34.92555804 -53.33115743 46.6925368 -53.32859802 62.22106934 C-53.33227471 63.4225259 -53.3359514 64.62398247 -53.3397395 65.8618468 C-53.34882911 69.18441146 -53.35346779 72.50692688 -53.35612881 75.82949924 C-53.36004734 79.4179415 -53.36962438 83.00636966 -53.37834167 86.59480286 C-53.39806004 95.25349395 -53.40816533 103.91218614 -53.41706946 112.57089406 C-53.421459 116.65361596 -53.42682399 120.73633658 -53.43205833 124.81905746 C-53.44906419 138.39885501 -53.4635578 151.97865177 -53.47080708 165.55845833 C-53.47271679 169.07863491 -53.47463716 172.59881148 -53.47659302 176.11898804 C-53.47707676 176.99385085 -53.4775605 177.86871366 -53.4780589 178.77008747 C-53.48635731 192.9387598 -53.51169392 207.10734765 -53.5441737 221.27598311 C-53.57728357 235.83873899 -53.59525929 250.40145197 -53.59845132 264.96424568 C-53.60061252 273.13424861 -53.60930421 281.30412825 -53.63491249 289.47409439 C-53.65667306 296.4323001 -53.66464359 303.39035255 -53.65494571 310.34858842 C-53.65041676 313.89458404 -53.6522045 317.44026379 -53.67170715 320.98621559 C-53.69272719 324.84156602 -53.68230319 328.69648712 -53.66917419 332.55187988 C-53.68014344 333.65706785 -53.69111269 334.76225582 -53.70241433 335.90093434 C-53.58042056 350.81686732 -48.11160606 363.16658133 -37.993927 374.01742554 C-26.3598918 385.0391431 -13.39938237 388.74001518 2.2844696 388.65510559 C3.49272186 388.66049113 4.70097411 388.66587667 5.94584006 388.6714254 C9.26900038 388.68318344 12.5916539 388.68166873 15.91479313 388.67425859 C19.510698 388.66950288 23.10655058 388.68205795 26.70243835 388.692276 C33.73552805 388.70942315 40.76852824 388.71031244 47.8016334 388.7050631 C53.52208392 388.70101214 59.24250811 388.70247592 64.96295738 388.70781136 C65.7789318 388.70855978 66.59490622 388.7093082 67.43560713 388.7100793 C69.09358203 388.71161087 70.75155691 388.71314922 72.40953179 388.71469427 C87.93861181 388.72840481 103.46764137 388.72299205 118.99672022 388.71150906 C133.18063877 388.70158058 147.3644268 388.71451324 161.54832522 388.73844325 C176.13721471 388.76286971 190.72604351 388.77243327 205.31495303 388.76579052 C213.49553294 388.76230587 221.67601255 388.76448027 229.85657692 388.78204155 C236.82126168 388.79680808 243.78577552 388.79734126 250.75045709 388.77997064 C254.29861683 388.77149422 257.84647182 388.76922776 261.39461517 388.78462219 C281.93934077 388.86722202 300.15106559 388.33306098 316.131073 373.57992554 C326.99262446 361.83770775 331.4574851 347.36385079 331.31977844 331.62348938 C331.32531284 330.42028425 331.33084724 329.21707913 331.33654934 327.97741324 C331.34771147 324.67767505 331.34121564 321.37854907 331.32681262 318.07884204 C331.31561861 314.50482462 331.327673 310.93087057 331.33665466 307.3568573 C331.35053182 300.37146415 331.34307224 293.38625272 331.32797908 286.40086835 C331.31105197 278.25422405 331.31433763 270.10762418 331.31807316 261.96096773 C331.32394153 247.41912219 331.30981996 232.87736344 331.28512573 218.33554077 C331.26120356 204.2466405 331.25412452 190.15785614 331.26461792 176.06893921 C331.27604397 160.70042874 331.27793672 145.33197178 331.26351982 129.96346194 C331.2619941 128.32272852 331.26047374 126.6819951 331.25895882 125.04126167 C331.258201 124.23413664 331.25744319 123.42701161 331.25666241 122.59542824 C331.25193295 116.92575707 331.25376146 111.25610992 331.25802422 105.58643913 C331.2629662 98.67153198 331.25689842 91.7567341 331.23712992 84.84185188 C331.22730257 81.31828388 331.22210309 77.79488176 331.23002243 74.27130508 C331.23600392 70.44215353 331.22341436 66.6134861 331.20625305 62.78437805 C331.2122631 61.68426091 331.21827314 60.58414376 331.22446531 59.45068973 C331.10253241 44.42576702 326.5292219 30.28273467 315.9982605 19.29476929 C306.14964163 10.13449475 293.27752027 4.15524894 279.66096401 4.13599777 C278.63777425 4.13215663 277.61458449 4.12831548 276.56038898 4.12435794 C275.44309078 4.12522442 274.32579257 4.1260909 273.17463684 4.12698364 C271.98235066 4.12401252 270.79006449 4.1210414 269.56164843 4.11798024 C266.25543546 4.11080786 262.94927447 4.10812154 259.64305747 4.10738277 C256.07573277 4.10552946 252.50841928 4.09798063 248.94110107 4.09124756 C241.14125496 4.07767383 233.34141399 4.07164075 225.54155803 4.0672369 C220.66841126 4.06447233 215.79526648 4.06023454 210.92212105 4.05573273 C197.42217985 4.04354033 183.92224024 4.0332416 170.42229366 4.02985764 C169.55847792 4.02963807 168.69466217 4.0294185 167.80467019 4.02919228 C166.50588957 4.02886487 166.50588957 4.02886487 165.18087095 4.02853084 C163.42639728 4.02808737 161.67192362 4.02764081 159.91744995 4.02719116 C158.61203761 4.02685902 158.61203761 4.02685902 157.2802533 4.02652016 C143.18839309 4.02257475 129.09658468 4.00512845 115.00474446 3.98183164 C100.52680729 3.95809038 86.04889607 3.94565449 71.57093912 3.94448972 C63.44623498 3.94357441 55.32159828 3.93785872 47.19691277 3.9196701 C40.27634197 3.9042315 33.35585947 3.89917068 26.43527471 3.90740821 C22.90769762 3.91130172 19.38029813 3.91044923 15.85274315 3.89635086 C12.01888478 3.88116926 8.18527318 3.88951708 4.35139465 3.89993286 C2.69886992 3.88784825 2.69886992 3.88784825 1.01296085 3.87551951 C-15.79322844 3.98186241 -29.7371545 9.84667927 -41.181427 22.26742554 Z " fill="#A96FBB" transform="translate(57.181427001953125,-0.267425537109375)"/>
<path d="M0 0 C0.98902313 -0.00540298 1.97804626 -0.01080597 2.99703979 -0.01637268 C6.26786173 -0.0288849 9.53780776 -0.01235183 12.80859375 0.00561523 C15.08015998 0.00546031 17.35172647 0.00397234 19.62329102 0.00120544 C24.38472169 -0.00017967 29.14585155 0.0123987 33.90722656 0.03515625 C40.01409577 0.06354089 46.12046502 0.0608049 52.22737122 0.04806614 C56.91821573 0.04111506 61.60894444 0.04889178 66.29977417 0.06132317 C68.55166174 0.0658432 70.80356173 0.06616967 73.05545044 0.06225777 C76.20128918 0.05935121 79.34643611 0.07582655 82.4921875 0.09765625 C83.89185257 0.09090378 83.89185257 0.09090378 85.3197937 0.08401489 C91.61299304 0.15666595 91.61299304 0.15666595 94.82250977 1.90586853 C96.58162771 3.87784321 96.78581523 4.88009102 96.74609375 7.50170898 C96.7615625 8.52264648 96.7615625 8.52264648 96.77734375 9.56420898 C96.24609375 11.50170898 96.24609375 11.50170898 94.82250977 13.09754944 C90.83120048 15.27283286 86.96827684 14.92735593 82.4921875 14.90576172 C81.0086528 14.91605659 81.0086528 14.91605659 79.49514771 14.92655945 C76.22448388 14.94486759 72.95429784 14.94098448 69.68359375 14.93530273 C67.4120264 14.93986227 65.14046043 14.94516715 62.86889648 14.95118713 C58.10752763 14.9601259 53.34632645 14.95768593 48.58496094 14.94775391 C42.47802821 14.9362575 36.37167311 14.95648261 30.26481628 14.98567104 C25.5739778 15.00399998 20.88327862 15.00374726 16.19241333 14.99803352 C13.94051299 14.99787994 11.68860343 15.00395506 9.43673706 15.016325 C6.29078712 15.03117213 3.14591575 15.02060395 0 15.00341797 C-1.39966507 15.01791992 -1.39966507 15.01791992 -2.8276062 15.03271484 C-9.11210023 14.96068066 -9.11210023 14.96068066 -12.33227539 12.65785217 C-14.28388521 9.69790642 -14.33335783 7.97841844 -13.75390625 4.50170898 C-10.28786635 -0.75512564 -5.70877238 -0.05914869 0 0 Z " fill="#E6CDDD" transform="translate(208.75390625,147.498291015625)"/>
<path d="M0 0 C1.26386032 -0.01007584 1.26386032 -0.01007584 2.55325317 -0.02035522 C5.34228388 -0.03937426 8.13107448 -0.04326125 10.92016602 -0.04541016 C12.85685832 -0.05183493 14.79354963 -0.05856304 16.73023987 -0.06558228 C20.79137422 -0.0775645 24.85242344 -0.08126208 28.91357422 -0.08007812 C34.12037717 -0.07987478 39.32663525 -0.1071886 44.53330898 -0.14162254 C48.53357964 -0.16384621 52.53371818 -0.16791708 56.53404427 -0.16685867 C58.45381614 -0.16922103 60.37359132 -0.17808009 62.29330254 -0.19352341 C64.97717479 -0.21309368 67.65985911 -0.20738119 70.34375 -0.1953125 C71.13817001 -0.20655151 71.93259003 -0.21779053 72.75108337 -0.22937012 C76.31727618 -0.18856688 78.33905797 -0.00826826 81.22987366 2.16464233 C82.73657227 4.29052734 82.73657227 4.29052734 83.23657227 6.79052734 C82.55244053 10.211186 81.52488019 11.19161445 78.73657227 13.29052734 C75.8180623 13.68510511 73.27713756 13.83790046 70.35961914 13.80810547 C69.09553978 13.81861938 69.09553978 13.81861938 67.80592346 13.8293457 C65.02205391 13.8469418 62.23920204 13.83529743 59.45532227 13.82177734 C57.52005824 13.8244718 55.58479553 13.82835383 53.64953613 13.83337402 C49.59426988 13.83927125 45.53935613 13.83069884 41.48413086 13.81201172 C36.28514295 13.78922208 31.08698098 13.80234395 25.88802338 13.82630157 C21.89200615 13.84075345 17.89618486 13.83615636 13.90016174 13.82579041 C11.98319908 13.82312143 10.06621865 13.82639887 8.14927673 13.83570862 C5.47021344 13.84586417 2.79248892 13.83038761 0.11352539 13.80810547 C-1.07574806 13.82025085 -1.07574806 13.82025085 -2.28904724 13.8326416 C-5.81092997 13.77835477 -7.89003088 13.55730636 -10.79089355 11.48474121 C-12.26342773 9.29052734 -12.26342773 9.29052734 -12.20092773 5.66552734 C-10.39923832 -0.82055455 -5.73958251 -0.00653178 0 0 Z " fill="#E6CDDD" transform="translate(148.263427734375,175.70947265625)"/>
<path d="M0 0 C0.7354303 -0.00540298 1.4708606 -0.01080597 2.22857666 -0.01637268 C4.65540017 -0.02886252 7.08103785 -0.01236846 9.5078125 0.00561523 C11.19645246 0.00546025 12.88509277 0.00397138 14.57373047 0.00120544 C18.11116275 -0.00017866 21.64818963 0.01238104 25.18554688 0.03515625 C29.71858153 0.06354113 34.2509426 0.06080382 38.7840271 0.04806614 C42.2704849 0.04110923 45.75678716 0.04889834 49.2432251 0.06132317 C50.91456506 0.06583757 52.58592172 0.06617456 54.25726318 0.06225777 C56.59373159 0.05934537 58.92927369 0.07585274 61.265625 0.09765625 C62.30061127 0.09090378 62.30061127 0.09090378 63.35650635 0.08401489 C67.37381208 0.14626509 69.77056778 0.59744921 72.6328125 3.50170898 C73.1640625 5.43920898 73.1640625 5.43920898 73.1328125 7.50170898 C73.14828125 8.52264648 73.14828125 8.52264648 73.1640625 9.56420898 C72.38274412 12.41372308 71.17716188 13.0298053 68.6328125 14.50170898 C66.09458875 14.79638223 63.80230839 14.92231158 61.265625 14.90576172 C60.16247955 14.91605659 60.16247955 14.91605659 59.03704834 14.92655945 C56.61043902 14.94483411 54.18447574 14.94098962 51.7578125 14.93530273 C50.06917104 14.93986387 48.38053143 14.94516924 46.69189453 14.95118713 C43.15454563 14.96011924 39.61742249 14.95769362 36.08007812 14.94775391 C31.54695792 14.9362573 27.01461587 14.95648529 22.4815979 14.98567104 C18.99514823 15.00401533 15.50888572 15.00374428 12.0223999 14.99803352 C10.35104276 14.99788013 8.67967308 15.00393969 7.00836182 15.016325 C4.671744 15.03120238 2.33657251 15.02058406 0 15.00341797 C-0.68999084 15.01308594 -1.37998169 15.02275391 -2.09088135 15.03271484 C-5.41296481 14.98160385 -7.11911834 14.69000313 -9.79638672 12.65785217 C-11.3671875 10.50170898 -11.3671875 10.50170898 -11.8671875 7.50170898 C-10.72700799 0.66063195 -6.14050064 -0.08603907 0 0 Z " fill="#E6CDDD" transform="translate(232.3671875,202.498291015625)"/>
<path d="M0 0 C0.64604187 -0.00700928 1.29208374 -0.01401855 1.95770264 -0.02124023 C4.08755834 -0.03880645 6.21607868 -0.02720288 8.34594727 -0.01367188 C9.83041132 -0.01636756 11.31487365 -0.02025062 12.79933167 -0.02526855 C15.90887277 -0.03116195 19.01795384 -0.02260766 22.12744141 -0.00390625 C26.10676749 0.01886412 30.08501328 0.00577258 34.06429958 -0.01819611 C37.12962427 -0.03267583 40.19469443 -0.02803797 43.26002693 -0.01768494 C44.72679841 -0.01502259 46.19359324 -0.01827013 47.66033745 -0.02760315 C49.71428139 -0.03780337 51.76649678 -0.02222274 53.8203125 0 C54.98739243 0.00318237 56.15447235 0.00636475 57.35691833 0.00964355 C61.13350998 0.62487811 62.8095563 1.81211267 65.47485352 4.51757812 C66.09985352 7.51757812 66.09985352 7.51757812 65.47485352 10.51757812 C62.82660481 13.19601198 61.14426732 14.40547405 57.40161133 15.03224182 C55.68216309 15.04153969 55.68216309 15.04153969 53.92797852 15.05102539 C52.623125 15.06686172 51.31827148 15.08269806 49.97387695 15.09901428 C48.55753216 15.09517285 47.14119017 15.09013383 45.72485352 15.08398438 C44.26423751 15.08922243 42.80362489 15.09549958 41.34301758 15.10276794 C38.28654018 15.1131605 35.23052869 15.10862723 32.17407227 15.09399414 C28.26298547 15.0767992 24.35336686 15.10031381 20.44244385 15.13548374 C17.42771731 15.15747458 14.41334129 15.15601256 11.39855957 15.14771843 C9.95689279 15.14689997 8.5152 15.15374342 7.0736084 15.16848946 C5.05637998 15.18596303 3.03893957 15.16805694 1.02172852 15.14868164 C-0.12457031 15.14771988 -1.27086914 15.14675812 -2.4519043 15.14576721 C-6.46973225 14.32449915 -7.97696715 12.65874393 -10.52514648 9.51757812 C-11.08764648 6.95507812 -11.08764648 6.95507812 -10.52514648 4.51757812 C-7.36307574 0.39821966 -5.08583396 0.01387742 0 0 Z " fill="#E6CDDD" transform="translate(146.525146484375,202.482421875)"/>
<path d="M0 0 C1.4719558 -0.00574036 1.4719558 -0.00574036 2.97364807 -0.01159668 C5.04730252 -0.01431651 7.12099123 -0.00695038 9.19458008 0.00976562 C12.36422522 0.03115095 15.53159776 0.00997777 18.70117188 -0.015625 C20.71745291 -0.01298129 22.73373253 -0.00785541 24.75 0 C26.16894814 -0.01214539 26.16894814 -0.01214539 27.61656189 -0.02453613 C31.86168309 0.03576409 34.33872856 0.18297152 38.07446289 2.34179688 C39.94140625 4.53125 39.94140625 4.53125 40.00390625 8.09375 C38.82966738 11.8927581 38.25216333 12.57214985 34.94140625 14.53125 C32.77893066 14.92565918 32.77893066 14.92565918 30.41992188 14.95117188 C29.53220093 14.96708374 28.64447998 14.98299561 27.7298584 14.99938965 C26.30316833 14.99969177 26.30316833 14.99969177 24.84765625 15 C23.86398071 15.00761353 22.88030518 15.01522705 21.86682129 15.02307129 C19.78900692 15.03386706 17.71113832 15.03672753 15.63330078 15.03222656 C12.45253276 15.0312534 9.27417025 15.07289881 6.09375 15.1171875 C4.07422378 15.12239391 2.05468918 15.1250827 0.03515625 15.125 C-0.91597046 15.14139526 -1.86709717 15.15779053 -2.8470459 15.17468262 C-9.4303619 15.10567386 -9.4303619 15.10567386 -12.65820312 12.15429688 C-14.23249775 9.20551351 -14.73069446 7.80774095 -14.05859375 4.53125 C-10.54143898 -0.78274536 -5.77556643 -0.04932999 0 0 Z " fill="#E6CEDD" transform="translate(150.05859375,147.46875)"/>
<path d="M0 0 C1.65 0 3.3 0 5 0 C5.31710937 0.73605469 5.63421875 1.47210938 5.9609375 2.23046875 C9.59708491 9.83423558 13.0611092 13.16019914 21 16 C21 17.65 21 19.3 21 21 C20.34773438 21.23332031 19.69546875 21.46664062 19.0234375 21.70703125 C11.17213126 24.9841989 8.31435721 29.30691884 5 37 C3.35 37 1.7 37 0 37 C-0.33773438 36.30132812 -0.67546875 35.60265625 -1.0234375 34.8828125 C-1.69246094 33.51769531 -1.69246094 33.51769531 -2.375 32.125 C-2.81585938 31.22007813 -3.25671875 30.31515625 -3.7109375 29.3828125 C-5.11469268 26.78799232 -6.06364611 25.3140328 -8.91015625 24.359375 C-9.62042969 24.15828125 -10.33070313 23.9571875 -11.0625 23.75 C-13.22265625 22.99609375 -13.22265625 22.99609375 -15 22 C-16 18.8125 -16 18.8125 -16 16 C-13.34579489 14.36063802 -10.95220904 12.98307404 -8 11.9375 C-3.50675394 9.03561192 -2.04357358 4.81957839 0 0 Z " fill="#FCFAFB" transform="translate(324,56)"/>
<path d="M0 0 C2.3125 0 2.3125 0 5 1 C5.99826958 2.73892121 6.99148881 4.4831998 7.88671875 6.27734375 C9.63849402 8.98798548 12.07040976 9.86811286 15 11 C15 12.65 15 14.3 15 16 C13.906875 16.350625 12.81375 16.70125 11.6875 17.0625 C8.20264387 18.51102453 8.04651655 18.90007557 6.3125 22.625 C5.6628125 24.295625 5.6628125 24.295625 5 26 C2.8125 26.9375 2.8125 26.9375 1 27 C-0.55919615 25.01556854 -1.88324627 23.29637485 -2.8125 20.9375 C-3.95179387 18.68019246 -3.95179387 18.68019246 -7.0625 17.5625 C-10 16 -10 16 -10.875 13.3125 C-10.91625 12.549375 -10.9575 11.78625 -11 11 C-5.25 8 -5.25 8 -3 8 C-2.690625 6.865625 -2.38125 5.73125 -2.0625 4.5625 C-1 1 -1 1 0 0 Z " fill="#FDFBFC" transform="translate(348,85)"/>
<path d="M0 0 C1.50336914 -0.0299707 1.50336914 -0.0299707 3.03710938 -0.06054688 C10.36136745 -0.05566078 10.36136745 -0.05566078 13.72265625 2.30859375 C15.41912302 5.00414591 15.68798334 6.3100833 15.0625 9.4375 C13.71875 11.55859375 13.71875 11.55859375 11.0625 13.4375 C7.39075933 14.07026639 3.78031561 14.04082872 0.0625 14 C-0.93523437 14.02384766 -1.93296875 14.04769531 -2.9609375 14.07226562 C-10.23358225 14.05764234 -10.23358225 14.05764234 -13.62890625 11.06640625 C-14.9375 8.4375 -14.9375 8.4375 -14.875 5.8125 C-12.10165417 -1.21330944 -6.60313476 -0.04653074 0 0 Z " fill="#E6CDDD" transform="translate(251.9375,175.5625)"/>
<path d="M0 0 C0.99773437 -0.02384766 1.99546875 -0.04769531 3.0234375 -0.07226562 C10.29608225 -0.05764234 10.29608225 -0.05764234 13.69140625 2.93359375 C15 5.5625 15 5.5625 14.9375 8.1875 C13.9157929 10.77582465 13.1762258 11.8573253 11 13.5625 C8.6875 13.93481445 8.6875 13.93481445 6 13.92578125 C5.030625 13.92513672 4.06125 13.92449219 3.0625 13.92382812 C1.5465625 13.8996582 1.5465625 13.8996582 0 13.875 C-1.010625 13.87822266 -2.02125 13.88144531 -3.0625 13.88476562 C-10.59928571 13.82964286 -10.59928571 13.82964286 -14 11.5625 C-14.9375 8.1875 -14.9375 8.1875 -15 4.5625 C-11.65008891 -1.04735111 -5.80599185 -0.06376089 0 0 Z " fill="#E6CDDD" transform="translate(291,175.4375)"/>
</svg>
