<?xml version="1.0" encoding="UTF-8"?>
<svg version="1.1" xmlns="http://www.w3.org/2000/svg" width="1157" height="336">
<path d="M0 0 C16.17 0 32.34 0 49 0 C49 0.66 49 1.32 49 2 C52.63 2 56.26 2 60 2 C60 2.66 60 3.32 60 4 C64.95 4.33 69.9 4.66 75 5 C75 5.66 75 6.32 75 7 C80.94 7.495 80.94 7.495 87 8 C87 8.66 87 9.32 87 10 C89.31 10.33 91.62 10.66 94 11 C94 11.66 94 12.32 94 13 C96.97 13.33 99.94 13.66 103 14 C103 14.66 103 15.32 103 16 C103.99 16 104.98 16 106 16 C106 16.66 106 17.32 106 18 C107.98 18.33 109.96 18.66 112 19 C112 19.66 112 20.32 112 21 C113.98 21.33 115.96 21.66 118 22 C118 22.66 118 23.32 118 24 C119.65 24.33 121.3 24.66 123 25 C123 25.66 123 26.32 123 27 C124.98 27.33 126.96 27.66 129 28 C129 28.66 129 29.32 129 30 C130.65 30.33 132.3 30.66 134 31 C134.33 32.32 134.66 33.64 135 35 C136.65 35.33 138.3 35.66 140 36 C140 36.66 140 37.32 140 38 C140.99 38.33 141.98 38.66 143 39 C143 39.66 143 40.32 143 41 C143.99 41.33 144.98 41.66 146 42 C146 42.66 146 43.32 146 44 C147.65 44.33 149.3 44.66 151 45 C151.33 46.65 151.66 48.3 152 50 C152.66 50 153.32 50 154 50 C154 50.66 154 51.32 154 52 C154.99 52.33 155.98 52.66 157 53 C157 53.66 157 54.32 157 55 C157.99 55.33 158.98 55.66 160 56 C160 56.66 160 57.32 160 58 C160.99 58.33 161.98 58.66 163 59 C163 59.99 163 60.98 163 62 C163.66 62 164.32 62 165 62 C165.33 63.32 165.66 64.64 166 66 C166.66 66 167.32 66 168 66 C168 66.99 168 67.98 168 69 C168.99 69.33 169.98 69.66 171 70 C171 70.99 171 71.98 171 73 C171.66 73 172.32 73 173 73 C173.33 75.64 173.66 78.28 174 81 C174.66 81 175.32 81 176 81 C176.33 82.65 176.66 84.3 177 86 C177.66 86 178.32 86 179 86 C179 86.99 179 87.98 179 89 C180.32 89.33 181.64 89.66 183 90 C183 90.66 183 91.32 183 92 C184.65 92.33 186.3 92.66 188 93 C188 93.66 188 94.32 188 95 C188.99 95.33 189.98 95.66 191 96 C191 96.66 191 97.32 191 98 C191.66 98 192.32 98 193 98 C194.33895632 99.66215268 195.67130142 101.32963607 197 103 C197.845625 103.66 198.69125 104.32 199.5625 105 C202.1627289 107.13352115 203.36171681 109.0957707 205 112 C205.8353125 112.804375 205.8353125 112.804375 206.6875 113.625 C208 115 208 115 208 118 C208.66 118 209.32 118 210 118 C210.33 119.65 210.66 121.3 211 123 C211.66 123 212.32 123 213 123 C213.33 125.64 213.66 128.28 214 131 C214.99 131.33 215.98 131.66 217 132 C217 133.65 217 135.3 217 137 C217.66 137 218.32 137 219 137 C219 138.32 219 139.64 219 141 C219.66 141 220.32 141 221 141 C221.91657981 146.38490641 222.11138159 151.54230189 222 157 C222.66 157 223.32 157 224 157 C224 163.93 224 170.86 224 178 C223.34 178 222.68 178 222 178 C221.67 181.96 221.34 185.92 221 190 C220.34 190 219.68 190 219 190 C218.87625 190.70125 218.7525 191.4025 218.625 192.125 C217.96161655 195.17656387 217.02788045 198.05340938 216 201 C215.34 201 214.68 201 214 201 C213.67 202.65 213.34 204.3 213 206 C212.34 206 211.68 206 211 206 C210.87625 206.969375 210.7525 207.93875 210.625 208.9375 C210.315625 210.4534375 210.315625 210.4534375 210 212 C209.34 212.33 208.68 212.66 208 213 C207.835 213.66 207.67 214.32 207.5 215 C207.335 215.66 207.17 216.32 207 217 C206.34 217.33 205.68 217.66 205 218 C204.67 218.99 204.34 219.98 204 221 C203.34 221 202.68 221 202 221 C202 221.66 202 222.32 202 223 C200.625 224.625 200.625 224.625 199 226 C198.34 226 197.68 226 197 226 C196.67 227.32 196.34 228.64 196 230 C195.34 230 194.68 230 194 230 C193.9071875 230.86625 193.9071875 230.86625 193.8125 231.75 C192.6726745 234.90643986 190.66405371 236.03367464 188 238 C187.443125 238.5775 186.88625 239.155 186.3125 239.75 C185 241 185 241 183 241 C182.67 241.99 182.34 242.98 182 244 C181.34 244 180.68 244 180 244 C180 246.97 180 249.94 180 253 C180.66 253.33 181.32 253.66 182 254 C182.625 256.5625 182.625 256.5625 183 259 C183.66 259 184.32 259 185 259 C185 259.66 185 260.32 185 261 C185.99 261.33 186.98 261.66 188 262 C188 262.66 188 263.32 188 264 C188.99 264.33 189.98 264.66 191 265 C191 265.66 191 266.32 191 267 C192.65 267.33 194.3 267.66 196 268 C196 268.66 196 269.32 196 270 C197.32 270.33 198.64 270.66 200 271 C200 271.66 200 272.32 200 273 C200.94875 273.0825 201.8975 273.165 202.875 273.25 C204.421875 273.62125 204.421875 273.62125 206 274 C206.66666667 275.33333333 207.33333333 276.66666667 208 278 C211.05908413 278.81584568 211.05908413 278.81584568 214 279 C214 279.66 214 280.32 214 281 C214.99 281.33 215.98 281.66 217 282 C217 282.66 217 283.32 217 284 C218.65 284.33 220.3 284.66 222 285 C222 286.32 222 287.64 222 289 C221.34 289 220.68 289 220 289 C220 289.66 220 290.32 220 291 C218.88882812 290.86722656 217.77765625 290.73445313 216.6328125 290.59765625 C208.76101316 289.66156951 200.89203146 288.75162204 193 288 C193 287.34 193 286.68 193 286 C188.05 285.67 183.1 285.34 178 285 C178 284.34 178 283.68 178 283 C175.03 282.67 172.06 282.34 169 282 C169 281.34 169 280.68 169 280 C168.34 280 167.68 280 167 280 C167 279.34 167 278.68 167 278 C164.03 277.67 161.06 277.34 158 277 C158 276.34 158 275.68 158 275 C156.02 274.67 154.04 274.34 152 274 C152 273.34 152 272.68 152 272 C150.35 271.67 148.7 271.34 147 271 C147 270.34 147 269.68 147 269 C145.35 268.67 143.7 268.34 142 268 C142 267.34 142 266.68 142 266 C141.34 266 140.68 266 140 266 C140 266.66 140 267.32 140 268 C138.99839844 268.12117188 137.99679687 268.24234375 136.96484375 268.3671875 C135.6223597 268.53617151 134.27991377 268.70545858 132.9375 268.875 C132.28072266 268.95363281 131.62394531 269.03226562 130.94726562 269.11328125 C127.60009174 269.54198332 124.57299922 270.12303412 121.3125 271.0625 C118.34286436 271.90296292 116.11590197 272.21895083 113.0625 272.125 C112.29035156 272.10695313 111.51820313 272.08890625 110.72265625 272.0703125 C109.86994141 272.03550781 109.86994141 272.03550781 109 272 C109 272.66 109 273.32 109 274 C100.294634 275.04061421 91.62861179 275.15450672 82.87573242 275.13037109 C80.57008262 275.12501761 78.26462824 275.13034347 75.95898438 275.13671875 C67.58937489 275.14008721 59.33266996 274.88970987 51 274 C51 273.34 51 272.68 51 272 C49.205625 272.0309375 49.205625 272.0309375 47.375 272.0625 C43.81995131 272.06882571 40.49444376 271.69888875 37 271 C37 270.34 37 269.68 37 269 C33.37 268.67 29.74 268.34 26 268 C26 267.34 26 266.68 26 266 C23.03 265.67 20.06 265.34 17 265 C17 264.34 17 263.68 17 263 C16.01 263 15.02 263 14 263 C14 262.34 14 261.68 14 261 C12.02 260.67 10.04 260.34 8 260 C8 259.34 8 258.68 8 258 C5.36 257.67 2.72 257.34 0 257 C0 256.34 0 255.68 0 255 C-1.65 254.67 -3.3 254.34 -5 254 C-5 253.34 -5 252.68 -5 252 C-6.32 251.67 -7.64 251.34 -9 251 C-9 250.34 -9 249.68 -9 249 C-10.65 248.67 -12.3 248.34 -14 248 C-14 247.34 -14 246.68 -14 246 C-14.99 246 -15.98 246 -17 246 C-17 245.34 -17 244.68 -17 244 C-17.99 243.67 -18.98 243.34 -20 243 C-20 242.34 -20 241.68 -20 241 C-20.99 240.67 -21.98 240.34 -23 240 C-23 239.34 -23 238.68 -23 238 C-28.28 237.67 -33.56 237.34 -39 237 C-39 236.34 -39 235.68 -39 235 C-40.65 235 -42.3 235 -44 235 C-44 235.66 -44 236.32 -44 237 C-45.65 237.33 -47.3 237.66 -49 238 C-49 238.66 -49 239.32 -49 240 C-50.98 240.33 -52.96 240.66 -55 241 C-55 241.66 -55 242.32 -55 243 C-56.65 243.33 -58.3 243.66 -60 244 C-60 244.66 -60 245.32 -60 246 C-60.99 246 -61.98 246 -63 246 C-63 246.66 -63 247.32 -63 248 C-65.97 248.33 -68.94 248.66 -72 249 C-72 249.66 -72 250.32 -72 251 C-73.98 251.33 -75.96 251.66 -78 252 C-78 252.66 -78 253.32 -78 254 C-81.63 254.33 -85.26 254.66 -89 255 C-89 255.66 -89 256.32 -89 257 C-94.72040011 257.8320582 -100.22240116 258.12036664 -106 258 C-106 258.66 -106 259.32 -106 260 C-115.66543055 261.1922117 -125.28175551 261.09622024 -135 261 C-135 259.68 -135 258.36 -135 257 C-133.35 256.67 -131.7 256.34 -130 256 C-129.67 255.01 -129.34 254.02 -129 253 C-127.68 253 -126.36 253 -125 253 C-124.67 252.01 -124.34 251.02 -124 250 C-123.01 250 -122.02 250 -121 250 C-121 249.34 -121 248.68 -121 248 C-119.35 247.67 -117.7 247.34 -116 247 C-116 246.34 -116 245.68 -116 245 C-114.02 244.67 -112.04 244.34 -110 244 C-110 243.34 -110 242.68 -110 242 C-109.34 242 -108.68 242 -108 242 C-107.67 241.01 -107.34 240.02 -107 239 C-106.01 239 -105.02 239 -104 239 C-104 238.34 -104 237.68 -104 237 C-102.35 236.67 -100.7 236.34 -99 236 C-98.67 235.01 -98.34 234.02 -98 233 C-97.01 233 -96.02 233 -95 233 C-95 232.34 -95 231.68 -95 231 C-94.360625 230.896875 -93.72125 230.79375 -93.0625 230.6875 C-92.381875 230.460625 -91.70125 230.23375 -91 230 C-90.67 229.01 -90.34 228.02 -90 227 C-89.34 227 -88.68 227 -88 227 C-87.67 225.35 -87.34 223.7 -87 222 C-86.34 222 -85.68 222 -85 222 C-84.505 219.03 -84.505 219.03 -84 216 C-83.34 216 -82.68 216 -82 216 C-82 214.68 -82 213.36 -82 212 C-82.66 212 -83.32 212 -84 212 C-84 211.34 -84 210.68 -84 210 C-85.32 209.67 -86.64 209.34 -88 209 C-88 208.34 -88 207.68 -88 207 C-88.99 206.67 -89.98 206.34 -91 206 C-91 205.34 -91 204.68 -91 204 C-91.86625 203.62875 -91.86625 203.62875 -92.75 203.25 C-95.32939979 201.81700012 -97.06121592 200.21575324 -99 198 C-99 197.34 -99 196.68 -99 196 C-99.99 195.67 -100.98 195.34 -102 195 C-102 194.01 -102 193.02 -102 192 C-102.66 192 -103.32 192 -104 192 C-105.35386936 190.34997172 -106.68678142 188.6825613 -108 187 C-108.66 186.67 -109.32 186.34 -110 186 C-110 184.68 -110 183.36 -110 182 C-110.99 181.67 -111.98 181.34 -113 181 C-113 180.34 -113 179.68 -113 179 C-113.99 178.67 -114.98 178.34 -116 178 C-116 177.01 -116 176.02 -116 175 C-116.66 175 -117.32 175 -118 175 C-118.33 173.35 -118.66 171.7 -119 170 C-119.66 170 -120.32 170 -121 170 C-121.33 168.02 -121.66 166.04 -122 164 C-122.66 164 -123.32 164 -124 164 C-124.33 162.35 -124.66 160.7 -125 159 C-125.66 159 -126.32 159 -127 159 C-129.43425238 154.03006806 -130.34615998 150.65394631 -130 145 C-130.66 145 -131.32 145 -132 145 C-133.03590199 139.94997778 -133.10251672 135.12583611 -133 130 C-133.66 130 -134.32 130 -135 130 C-135 123.4 -135 116.8 -135 110 C-134.34 110 -133.68 110 -133 110 C-133.01160156 109.40832031 -133.02320313 108.81664062 -133.03515625 108.20703125 C-133.08322386 103.99768215 -133.06006883 100.1077667 -132 96 C-131.34 96 -130.68 96 -130 96 C-129.67 92.7 -129.34 89.4 -129 86 C-128.34 86 -127.68 86 -127 86 C-127 85.01 -127 84.02 -127 83 C-126.34 83 -125.68 83 -125 83 C-124.67 80.36 -124.34 77.72 -124 75 C-123.34 75 -122.68 75 -122 75 C-121.67 73.35 -121.34 71.7 -121 70 C-120.34 70 -119.68 70 -119 70 C-118.67 68.68 -118.34 67.36 -118 66 C-117.34 66 -116.68 66 -116 66 C-115.67 64.35 -115.34 62.7 -115 61 C-114.34 61 -113.68 61 -113 61 C-112.67 60.01 -112.34 59.02 -112 58 C-111.34 58 -110.68 58 -110 58 C-110 57.01 -110 56.02 -110 55 C-109.34 55 -108.68 55 -108 55 C-107.67 54.01 -107.34 53.02 -107 52 C-106.34 52 -105.68 52 -105 52 C-104.9071875 51.13375 -104.9071875 51.13375 -104.8125 50.25 C-103.67561467 47.10170216 -101.63092771 46.01908406 -99 44 C-98.34 43.113125 -97.68 42.22625 -97 41.3125 C-94.69035894 38.64197752 -93.45100574 38.28758381 -90 38 C-90 37.34 -90 36.68 -90 36 C-88.6875 34.375 -88.6875 34.375 -87 33 C-86.01 33 -85.02 33 -84 33 C-84 32.34 -84 31.68 -84 31 C-82.35 30.67 -80.7 30.34 -79 30 C-78.505 28.515 -78.505 28.515 -78 27 C-76.68 27 -75.36 27 -74 27 C-73.505 25.515 -73.505 25.515 -73 24 C-72.01 24 -71.02 24 -70 24 C-70 23.34 -70 22.68 -70 22 C-68.02 21.67 -66.04 21.34 -64 21 C-64 20.34 -64 19.68 -64 19 C-61.69 18.67 -59.38 18.34 -57 18 C-57 17.34 -57 16.68 -57 16 C-55.68 16 -54.36 16 -53 16 C-53 15.34 -53 14.68 -53 14 C-50.36 13.67 -47.72 13.34 -45 13 C-45 12.34 -45 11.68 -45 11 C-42.03 10.505 -42.03 10.505 -39 10 C-39 9.34 -39 8.68 -39 8 C-34.71 7.67 -30.42 7.34 -26 7 C-26 6.34 -26 5.68 -26 5 C-21.05 4.67 -16.1 4.34 -11 4 C-11 3.34 -11 2.68 -11 2 C-7.37 2 -3.74 2 0 2 C0 1.34 0 0.68 0 0 Z " fill="#8585F6" transform="translate(155,21)"/>
<path d="M0 0 C16.17 0 32.34 0 49 0 C49 0.66 49 1.32 49 2 C52.63 2 56.26 2 60 2 C60 2.66 60 3.32 60 4 C64.95 4.33 69.9 4.66 75 5 C75 5.66 75 6.32 75 7 C80.94 7.495 80.94 7.495 87 8 C87 8.66 87 9.32 87 10 C89.31 10.33 91.62 10.66 94 11 C94 11.66 94 12.32 94 13 C96.97 13.33 99.94 13.66 103 14 C103 14.66 103 15.32 103 16 C103.99 16 104.98 16 106 16 C106 16.66 106 17.32 106 18 C107.98 18.33 109.96 18.66 112 19 C112 19.66 112 20.32 112 21 C113.98 21.33 115.96 21.66 118 22 C118 22.66 118 23.32 118 24 C119.65 24.33 121.3 24.66 123 25 C123 25.66 123 26.32 123 27 C124.98 27.33 126.96 27.66 129 28 C129 28.66 129 29.32 129 30 C130.65 30.33 132.3 30.66 134 31 C134.33 32.32 134.66 33.64 135 35 C136.65 35.33 138.3 35.66 140 36 C140 36.66 140 37.32 140 38 C140.99 38.33 141.98 38.66 143 39 C143 39.66 143 40.32 143 41 C143.99 41.33 144.98 41.66 146 42 C146 42.66 146 43.32 146 44 C147.65 44.33 149.3 44.66 151 45 C151.33 46.65 151.66 48.3 152 50 C152.66 50 153.32 50 154 50 C154 50.66 154 51.32 154 52 C154.99 52.33 155.98 52.66 157 53 C157 53.66 157 54.32 157 55 C157.99 55.33 158.98 55.66 160 56 C160 56.66 160 57.32 160 58 C160.99 58.33 161.98 58.66 163 59 C163 59.99 163 60.98 163 62 C163.66 62 164.32 62 165 62 C165.33 63.32 165.66 64.64 166 66 C166.66 66 167.32 66 168 66 C168 66.99 168 67.98 168 69 C168.99 69.33 169.98 69.66 171 70 C171 70.99 171 71.98 171 73 C171.66 73 172.32 73 173 73 C173.66 77.29 174.32 81.58 175 86 C173.02 85.67 171.04 85.34 169 85 C168.67 83.68 168.34 82.36 168 81 C167.154375 80.896875 166.30875 80.79375 165.4375 80.6875 C161.58557299 79.9171146 158.55924969 78.63725486 155 77 C155 76.34 155 75.68 155 75 C153.02 74.67 151.04 74.34 149 74 C149 73.34 149 72.68 149 72 C148.05125 72.020625 147.1025 72.04125 146.125 72.0625 C143 72 143 72 141 71 C141 70.34 141 69.68 141 69 C139.0509375 68.814375 139.0509375 68.814375 137.0625 68.625 C124.19786096 67.19786096 124.19786096 67.19786096 122 65 C119.47804033 64.60056824 116.97036344 64.24920152 114.4375 63.9375 C113.72658203 63.84662109 113.01566406 63.75574219 112.28320312 63.66210938 C110.52261597 63.43760497 108.76136522 63.21831603 107 63 C107 62.34 107 61.68 107 61 C90.17 61 73.34 61 56 61 C56 61.66 56 62.32 56 63 C51.23692563 63.95261487 46.8333472 64.08333357 42 64 C42 64.66 42 65.32 42 66 C40.25183142 66.50636607 38.50137737 67.00484619 36.75 67.5 C35.77546875 67.7784375 34.8009375 68.056875 33.796875 68.34375 C31 69 31 69 27 69 C27 69.66 27 70.32 27 71 C25.1128125 71.5878125 25.1128125 71.5878125 23.1875 72.1875 C18.4903663 73.7457908 14.0549149 75.7154566 9.578125 77.81640625 C2.64356436 81 2.64356436 81 -1 81 C-1 81.66 -1 82.32 -1 83 C-3.97 83.495 -3.97 83.495 -7 84 C-7 84.66 -7 85.32 -7 86 C-7.9590625 86.4021875 -7.9590625 86.4021875 -8.9375 86.8125 C-11.33131686 87.88667752 -11.33131686 87.88667752 -12 91 C-12.99 91 -13.98 91 -15 91 C-15.495 92.485 -15.495 92.485 -16 94 C-17.98723268 94.70381157 -19.98777953 95.3711811 -22 96 C-22.33 96.66 -22.66 97.32 -23 98 C-23.66 98 -24.32 98 -25 98 C-25.495 99.485 -25.495 99.485 -26 101 C-26.66 101 -27.32 101 -28 101 C-28 101.66 -28 102.32 -28 103 C-28.9753197 104.02408568 -29.98198643 105.01834406 -31 106 C-31.680625 106.886875 -32.36125 107.77375 -33.0625 108.6875 C-33.701875 109.450625 -34.34125 110.21375 -35 111 C-35.66 111 -36.32 111 -37 111 C-37 111.99 -37 112.98 -37 114 C-38.375 115.6875 -38.375 115.6875 -40 117 C-40.66 117 -41.32 117 -42 117 C-42.33 118.98 -42.66 120.96 -43 123 C-43.66 123 -44.32 123 -45 123 C-45.28875 123.886875 -45.5775 124.77375 -45.875 125.6875 C-46.83148748 128.50382424 -47.86798946 131.25083156 -49 134 C-49.66 134 -50.32 134 -51 134 C-51.33 136.97 -51.66 139.94 -52 143 C-52.66 143 -53.32 143 -54 143 C-54.33 146.63 -54.66 150.26 -55 154 C-55.66 154 -56.32 154 -57 154 C-57 162.25 -57 170.5 -57 179 C-56.34 179 -55.68 179 -55 179 C-54.87882812 179.80824219 -54.75765625 180.61648437 -54.6328125 181.44921875 C-54.46523437 182.51785156 -54.29765625 183.58648437 -54.125 184.6875 C-53.96257812 185.74324219 -53.80015625 186.79898438 -53.6328125 187.88671875 C-53.04010836 190.80267676 -52.11308058 193.25471301 -51 196 C-51 196.99 -51 197.98 -51 199 C-50.34 199 -49.68 199 -49 199 C-49 200.65 -49 202.3 -49 204 C-48.34 204 -47.68 204 -47 204 C-46.01 208.455 -46.01 208.455 -45 213 C-44.34 213 -43.68 213 -43 213 C-43 213.99 -43 214.98 -43 216 C-42.01 216 -41.02 216 -40 216 C-40 217.65 -40 219.3 -40 221 C-39.01 221 -38.02 221 -37 221 C-37 221.99 -37 222.98 -37 224 C-36.34 224 -35.68 224 -35 224 C-35 224.99 -35 225.98 -35 227 C-34.01 227 -33.02 227 -32 227 C-32 227.99 -32 228.98 -32 230 C-31.01 230 -30.02 230 -29 230 C-29 230.66 -29 231.32 -29 232 C-28.01 232.33 -27.02 232.66 -26 233 C-26 233.99 -26 234.98 -26 236 C-29.96 235.67 -33.92 235.34 -38 235 C-38 234.34 -38 233.68 -38 233 C-40.31 233 -42.62 233 -45 233 C-45 233.66 -45 234.32 -45 235 C-45.99 235.33 -46.98 235.66 -48 236 C-48.73323796 238.01508358 -48.73323796 238.01508358 -49 240 C-50.98 240.33 -52.96 240.66 -55 241 C-55 241.66 -55 242.32 -55 243 C-56.65 243.33 -58.3 243.66 -60 244 C-60 244.66 -60 245.32 -60 246 C-60.99 246 -61.98 246 -63 246 C-63 246.66 -63 247.32 -63 248 C-65.97 248.33 -68.94 248.66 -72 249 C-72 249.66 -72 250.32 -72 251 C-73.98 251.33 -75.96 251.66 -78 252 C-78 252.66 -78 253.32 -78 254 C-81.63 254.33 -85.26 254.66 -89 255 C-89 255.66 -89 256.32 -89 257 C-94.72040011 257.8320582 -100.22240116 258.12036664 -106 258 C-106 258.66 -106 259.32 -106 260 C-115.66543055 261.1922117 -125.28175551 261.09622024 -135 261 C-135 259.68 -135 258.36 -135 257 C-133.35 256.67 -131.7 256.34 -130 256 C-129.67 255.01 -129.34 254.02 -129 253 C-127.68 253 -126.36 253 -125 253 C-124.67 252.01 -124.34 251.02 -124 250 C-123.01 250 -122.02 250 -121 250 C-121 249.34 -121 248.68 -121 248 C-119.35 247.67 -117.7 247.34 -116 247 C-116 246.34 -116 245.68 -116 245 C-114.02 244.67 -112.04 244.34 -110 244 C-110 243.34 -110 242.68 -110 242 C-109.34 242 -108.68 242 -108 242 C-107.67 241.01 -107.34 240.02 -107 239 C-106.01 239 -105.02 239 -104 239 C-104 238.34 -104 237.68 -104 237 C-102.35 236.67 -100.7 236.34 -99 236 C-98.67 235.01 -98.34 234.02 -98 233 C-97.01 233 -96.02 233 -95 233 C-95 232.34 -95 231.68 -95 231 C-94.360625 230.896875 -93.72125 230.79375 -93.0625 230.6875 C-92.381875 230.460625 -91.70125 230.23375 -91 230 C-90.67 229.01 -90.34 228.02 -90 227 C-89.34 227 -88.68 227 -88 227 C-87.67 225.35 -87.34 223.7 -87 222 C-86.34 222 -85.68 222 -85 222 C-84.505 219.03 -84.505 219.03 -84 216 C-83.34 216 -82.68 216 -82 216 C-82 214.68 -82 213.36 -82 212 C-82.66 212 -83.32 212 -84 212 C-84 211.34 -84 210.68 -84 210 C-85.32 209.67 -86.64 209.34 -88 209 C-88 208.34 -88 207.68 -88 207 C-88.99 206.67 -89.98 206.34 -91 206 C-91 205.34 -91 204.68 -91 204 C-91.86625 203.62875 -91.86625 203.62875 -92.75 203.25 C-95.32939979 201.81700012 -97.06121592 200.21575324 -99 198 C-99 197.34 -99 196.68 -99 196 C-99.99 195.67 -100.98 195.34 -102 195 C-102 194.01 -102 193.02 -102 192 C-102.66 192 -103.32 192 -104 192 C-105.35386936 190.34997172 -106.68678142 188.6825613 -108 187 C-108.66 186.67 -109.32 186.34 -110 186 C-110 184.68 -110 183.36 -110 182 C-110.99 181.67 -111.98 181.34 -113 181 C-113 180.34 -113 179.68 -113 179 C-113.99 178.67 -114.98 178.34 -116 178 C-116 177.01 -116 176.02 -116 175 C-116.66 175 -117.32 175 -118 175 C-118.33 173.35 -118.66 171.7 -119 170 C-119.66 170 -120.32 170 -121 170 C-121.33 168.02 -121.66 166.04 -122 164 C-122.66 164 -123.32 164 -124 164 C-124.33 162.35 -124.66 160.7 -125 159 C-125.66 159 -126.32 159 -127 159 C-129.43425238 154.03006806 -130.34615998 150.65394631 -130 145 C-130.66 145 -131.32 145 -132 145 C-133.03590199 139.94997778 -133.10251672 135.12583611 -133 130 C-133.66 130 -134.32 130 -135 130 C-135 123.4 -135 116.8 -135 110 C-134.34 110 -133.68 110 -133 110 C-133.01160156 109.40832031 -133.02320313 108.81664062 -133.03515625 108.20703125 C-133.08322386 103.99768215 -133.06006883 100.1077667 -132 96 C-131.34 96 -130.68 96 -130 96 C-129.67 92.7 -129.34 89.4 -129 86 C-128.34 86 -127.68 86 -127 86 C-127 85.01 -127 84.02 -127 83 C-126.34 83 -125.68 83 -125 83 C-124.67 80.36 -124.34 77.72 -124 75 C-123.34 75 -122.68 75 -122 75 C-121.67 73.35 -121.34 71.7 -121 70 C-120.34 70 -119.68 70 -119 70 C-118.67 68.68 -118.34 67.36 -118 66 C-117.34 66 -116.68 66 -116 66 C-115.67 64.35 -115.34 62.7 -115 61 C-114.34 61 -113.68 61 -113 61 C-112.67 60.01 -112.34 59.02 -112 58 C-111.34 58 -110.68 58 -110 58 C-110 57.01 -110 56.02 -110 55 C-109.34 55 -108.68 55 -108 55 C-107.67 54.01 -107.34 53.02 -107 52 C-106.34 52 -105.68 52 -105 52 C-104.9071875 51.13375 -104.9071875 51.13375 -104.8125 50.25 C-103.67561467 47.10170216 -101.63092771 46.01908406 -99 44 C-98.34 43.113125 -97.68 42.22625 -97 41.3125 C-94.69035894 38.64197752 -93.45100574 38.28758381 -90 38 C-90 37.34 -90 36.68 -90 36 C-88.6875 34.375 -88.6875 34.375 -87 33 C-86.01 33 -85.02 33 -84 33 C-84 32.34 -84 31.68 -84 31 C-82.35 30.67 -80.7 30.34 -79 30 C-78.505 28.515 -78.505 28.515 -78 27 C-76.68 27 -75.36 27 -74 27 C-73.505 25.515 -73.505 25.515 -73 24 C-72.01 24 -71.02 24 -70 24 C-70 23.34 -70 22.68 -70 22 C-68.02 21.67 -66.04 21.34 -64 21 C-64 20.34 -64 19.68 -64 19 C-61.69 18.67 -59.38 18.34 -57 18 C-57 17.34 -57 16.68 -57 16 C-55.68 16 -54.36 16 -53 16 C-53 15.34 -53 14.68 -53 14 C-50.36 13.67 -47.72 13.34 -45 13 C-45 12.34 -45 11.68 -45 11 C-42.03 10.505 -42.03 10.505 -39 10 C-39 9.34 -39 8.68 -39 8 C-34.71 7.67 -30.42 7.34 -26 7 C-26 6.34 -26 5.68 -26 5 C-21.05 4.67 -16.1 4.34 -11 4 C-11 3.34 -11 2.68 -11 2 C-7.37 2 -3.74 2 0 2 C0 1.34 0 0.68 0 0 Z " fill="#02027D" transform="translate(155,21)"/>
<path d="M0 0 C65.3976834 0 65.3976834 0 77 10 C83.55089507 17.46037547 85.4457874 25.14812989 85.25 34.9375 C84.64448468 42.35506265 82.47953174 49.72627226 77 55 C73.17287302 57.66812323 69.16928655 59.91535673 65 62 C66.43348809 65.97671481 68.33777392 69.26791729 70.66796875 72.7890625 C71.0258699 73.33299652 71.38377106 73.87693054 71.7525177 74.43734741 C72.8933175 76.1693766 74.04014169 77.89731013 75.1875 79.625 C76.68250115 81.88702419 78.17531347 84.1504898 79.66796875 86.4140625 C80.39161621 87.51137695 81.11526367 88.60869141 81.86083984 89.73925781 C91 103.67016663 91 103.67016663 91 105 C82.42588638 106.79966403 73.35991137 108.21166883 65 105 C58.78434529 99.26674456 55.18701049 91.69716376 51.48828125 84.19921875 C51.18672623 83.58950226 50.8851712 82.97978577 50.57447815 82.35159302 C49.17013161 79.48296168 47.84234634 76.61693466 46.62646484 73.66259766 C45.08854714 70.12385996 45.08854714 70.12385996 41 66 C35.06 65.67 29.12 65.34 23 65 C23 78.2 23 91.4 23 105 C15.41 105 7.82 105 0 105 C0 70.35 0 35.7 0 0 Z M23 19 C23 28.57 23 38.14 23 48 C27.310625 48.061875 31.62125 48.12375 36.0625 48.1875 C37.40836182 48.21481201 38.75422363 48.24212402 40.14086914 48.27026367 C46.51256179 48.31451484 51.45273518 48.28466736 57 45 C60.40315353 41.41773313 61.82744854 38.76002492 62.3125 33.8125 C61.94081201 29.27790646 60.90059835 25.56758086 58 22 C53.52223199 19.31490197 50.26126031 18.63812486 45.0703125 18.70703125 C43.90773926 18.71452393 42.74516602 18.7220166 41.54736328 18.72973633 C40.0879834 18.75704834 38.62860352 18.78436035 37.125 18.8125 C30.133125 18.9053125 30.133125 18.9053125 23 19 Z " fill="#00007C" transform="translate(413,135)"/>
<path d="M0 0 C7.43398432 6.42459929 11.6258017 14.09652337 13.0625 23.8125 C13.75599315 36.73202055 13.75599315 36.73202055 12.0625 41.8125 C-6.0875 41.8125 -24.2375 41.8125 -42.9375 41.8125 C-40.95149001 49.47887984 -40.95149001 49.47887984 -36.5 54.3125 C-35.92378906 54.7765625 -35.34757813 55.240625 -34.75390625 55.71875 C-30.01815504 58.57038513 -24.28677859 58.39080039 -18.9375 57.8125 C-13.56125763 56.12439659 -10.09321897 53.54607846 -6.9375 48.8125 C-0.83012558 50.57713072 5.13683507 52.50807475 11.0625 54.8125 C10.2534062 61.10791479 6.64673196 64.66486156 2.0625 68.8125 C-9.19646461 76.19396969 -21.99289918 77.28991261 -35.06640625 75.34765625 C-45.32790703 72.88080898 -53.91866555 67.5438225 -59.9375 58.8125 C-67.11595775 46.57086672 -67.08576469 32.6870448 -63.97265625 19.25 C-61.1023423 9.71839141 -55.33926574 2.78558029 -46.9296875 -2.43359375 C-32.51657579 -10.14884767 -13.41438216 -9.62969003 0 0 Z M-38.9375 14.8125 C-41.39664012 18.39323094 -42.9375 21.4371812 -42.9375 25.8125 C-31.7175 25.8125 -20.4975 25.8125 -8.9375 25.8125 C-9.54341527 19.37058655 -9.54341527 19.37058655 -12.75 15 C-13.25144531 14.43667969 -13.75289062 13.87335938 -14.26953125 13.29296875 C-18.53812923 9.50421317 -22.57477967 9.31569927 -28.11328125 9.44140625 C-32.60433627 10.03151721 -35.71572975 11.6437942 -38.9375 14.8125 Z " fill="#00007C" transform="translate(577.9375,166.1875)"/>
<path d="M0 0 C8.2757807 6.11627563 12.86230378 14.66472566 14.9375 24.69921875 C16.67853732 38.4143291 14.8926194 51.54955915 6.3203125 62.71484375 C-1.75903537 71.4298339 -11.48440994 75.58817278 -23.2890625 76.05126953 C-36.46626158 76.2958651 -46.97446621 73.07126902 -56.578125 63.90234375 C-65.63580763 54.42426235 -67.01477803 43.26907785 -66.890625 30.60546875 C-66.23279855 18.47222538 -62.15064003 9.76891129 -53.4296875 1.40234375 C-38.54163589 -11.22232164 -15.78642065 -10.12013487 0 0 Z M-39.4296875 15.52734375 C-45.24488241 23.76553654 -44.55069349 34.02707959 -43.6796875 43.71484375 C-42.21863846 50.23145452 -39.13133877 54.00308119 -33.6796875 57.71484375 C-28.20390087 59.54010596 -22.77228403 59.51611398 -17.4296875 57.21484375 C-13.07715607 54.77360356 -10.6438452 51.2416793 -8.6796875 46.71484375 C-6.00576185 36.58477926 -6.58278574 24.9488411 -11.6796875 15.71484375 C-15.82715642 11.35468411 -20.17256973 9.63136587 -26.1171875 9.40234375 C-31.96922117 9.56732646 -35.3206239 11.32489234 -39.4296875 15.52734375 Z " fill="#00007C" transform="translate(759.6796875,166.28515625)"/>
<path d="M0 0 C5.35551465 5.82806006 8.25477507 12.37159022 8.23852539 20.25268555 C8.23841209 22.08424446 8.23841209 22.08424446 8.23829651 23.95280457 C8.23313522 25.27162125 8.22797394 26.59043793 8.22265625 27.94921875 C8.2207908 29.31256559 8.2193675 30.67591311 8.21836853 32.03926086 C8.21455332 35.62478491 8.20473155 39.21026835 8.19366455 42.79577637 C8.18342901 46.4556422 8.17886632 50.1155146 8.17382812 53.77539062 C8.16310838 60.95444773 8.14551965 68.133463 8.125 75.3125 C0.865 75.3125 -6.395 75.3125 -13.875 75.3125 C-13.93107422 69.929375 -13.93107422 69.929375 -13.98828125 64.4375 C-14.03454747 60.94574026 -14.08576274 57.45408554 -14.13745117 53.96240234 C-14.17061976 51.54352244 -14.19867658 49.12456665 -14.22143555 46.70556641 C-14.25512935 43.2200499 -14.3074544 39.73522385 -14.36328125 36.25 C-14.36967117 35.17572754 -14.3760611 34.10145508 -14.38264465 32.99462891 C-14.50347254 26.7655533 -15.14524597 21.95043401 -17.875 16.3125 C-21.6174697 13.52740627 -25.11146093 12.74863319 -29.7890625 12.97265625 C-33.60282962 13.59400033 -36.97349734 14.72796822 -39.875 17.3125 C-43.97544312 23.96415867 -44.47536364 29.31250319 -44.484375 37.03125 C-44.50091125 38.12973267 -44.51744751 39.22821533 -44.53448486 40.35998535 C-44.58279597 43.84421475 -44.6042991 47.32800817 -44.625 50.8125 C-44.65317367 53.18491757 -44.68310304 55.55731498 -44.71484375 57.9296875 C-44.79183319 63.72415565 -44.83251295 69.51726687 -44.875 75.3125 C-52.465 75.3125 -60.055 75.3125 -67.875 75.3125 C-67.875 49.2425 -67.875 23.1725 -67.875 -3.6875 C-61.275 -3.6875 -54.675 -3.6875 -47.875 -3.6875 C-47.215 -0.3875 -46.555 2.9125 -45.875 6.3125 C-45.38 5.590625 -44.885 4.86875 -44.375 4.125 C-32.76574187 -8.93541539 -14.23297994 -8.3541404 0 0 Z " fill="#8585F7" transform="translate(1119.875,164.6875)"/>
<path d="M0 0 C5.35551465 5.82806006 8.25477507 12.37159022 8.23852539 20.25268555 C8.23841209 22.08424446 8.23841209 22.08424446 8.23829651 23.95280457 C8.23313522 25.27162125 8.22797394 26.59043793 8.22265625 27.94921875 C8.2207908 29.31256559 8.2193675 30.67591311 8.21836853 32.03926086 C8.21455332 35.62478491 8.20473155 39.21026835 8.19366455 42.79577637 C8.18342901 46.4556422 8.17886632 50.1155146 8.17382812 53.77539062 C8.16310838 60.95444773 8.14551965 68.133463 8.125 75.3125 C0.865 75.3125 -6.395 75.3125 -13.875 75.3125 C-13.93107422 69.929375 -13.93107422 69.929375 -13.98828125 64.4375 C-14.03454747 60.94574026 -14.08576274 57.45408554 -14.13745117 53.96240234 C-14.17061976 51.54352244 -14.19867658 49.12456665 -14.22143555 46.70556641 C-14.25512935 43.2200499 -14.3074544 39.73522385 -14.36328125 36.25 C-14.36967117 35.17572754 -14.3760611 34.10145508 -14.38264465 32.99462891 C-14.50347254 26.7655533 -15.14524597 21.95043401 -17.875 16.3125 C-21.6174697 13.52740627 -25.11146093 12.74863319 -29.7890625 12.97265625 C-33.60282962 13.59400033 -36.97349734 14.72796822 -39.875 17.3125 C-43.97544312 23.96415867 -44.47536364 29.31250319 -44.484375 37.03125 C-44.50091125 38.12973267 -44.51744751 39.22821533 -44.53448486 40.35998535 C-44.58279597 43.84421475 -44.6042991 47.32800817 -44.625 50.8125 C-44.65317367 53.18491757 -44.68310304 55.55731498 -44.71484375 57.9296875 C-44.79183319 63.72415565 -44.83251295 69.51726687 -44.875 75.3125 C-52.465 75.3125 -60.055 75.3125 -67.875 75.3125 C-67.875 49.2425 -67.875 23.1725 -67.875 -3.6875 C-61.275 -3.6875 -54.675 -3.6875 -47.875 -3.6875 C-47.215 -0.3875 -46.555 2.9125 -45.875 6.3125 C-45.38 5.590625 -44.885 4.86875 -44.375 4.125 C-32.76574187 -8.93541539 -14.23297994 -8.3541404 0 0 Z " fill="#00007C" transform="translate(859.875,164.6875)"/>
<path d="M0 0 C4.42301621 3.78531702 7.96000257 8.41764798 10.0625 13.875 C9.85058594 15.91430664 9.85058594 15.91430664 9.0625 17.875 C7.43603516 18.87988281 7.43603516 18.87988281 5.3515625 19.578125 C4.60132813 19.8359375 3.85109375 20.09375 3.078125 20.359375 C2.28921875 20.61203125 1.5003125 20.8646875 0.6875 21.125 C-0.09367188 21.393125 -0.87484375 21.66125 -1.6796875 21.9375 C-4.93676054 23.03062725 -7.47399703 23.875 -10.9375 23.875 C-11.22882812 23.18792969 -11.52015625 22.50085938 -11.8203125 21.79296875 C-14.37939424 16.1125648 -14.37939424 16.1125648 -18.6875 11.75 C-24.20961169 10.26327762 -28.83711715 10.12203256 -34.25 12.0625 C-38.84073871 15.15857959 -41.17459394 18.69646346 -42.9375 23.875 C-44.38419675 33.43019869 -44.77777544 42.66782836 -40.0625 51.3125 C-36.78213258 55.26823719 -33.94502467 57.55426747 -28.703125 58.11328125 C-23.72688035 58.26009592 -19.66237824 58.12772817 -15.41015625 55.36328125 C-12.53242613 52.45501818 -11.24882067 48.68678929 -9.9375 44.875 C-2.81102969 46.57522388 4.1459212 48.45419742 11.0625 50.875 C9.14019737 59.34514596 4.94396488 65.69547216 -2.40234375 70.48046875 C-14.4226955 76.79624679 -27.88036331 77.89809407 -40.9375 74.25 C-50.38815792 70.91310103 -58.70041297 64.38841147 -63.2265625 55.28125 C-68.35124252 42.74606147 -68.89856049 28.58926051 -64.25 15.7734375 C-59.5229811 5.33460409 -52.90530569 -0.76001419 -42.34765625 -5.21875 C-28.60537813 -9.68240725 -11.93207038 -8.41210962 0 0 Z " fill="#00007C" transform="translate(670.9375,166.125)"/>
<path d="M0 0 C7.92 0 15.84 0 24 0 C25.8247231 4.25768724 27.45131894 8.11983117 28.80932617 12.47631836 C29.12943161 13.49684799 29.44953705 14.51737762 29.77934265 15.5688324 C30.11383926 16.64826614 30.44833588 17.72769989 30.79296875 18.83984375 C31.14386063 19.96193741 31.4947525 21.08403107 31.85627747 22.24012756 C32.97014173 25.80485024 34.0788905 29.37114005 35.1875 32.9375 C35.94432375 35.36273562 36.70148156 37.78786702 37.45898438 40.21289062 C39.30985985 46.14072563 41.15654413 52.0698537 43 58 C45.80217516 51.87616659 47.80130046 45.58734828 49.79296875 39.16015625 C50.14386063 38.03806259 50.4947525 36.91596893 50.85627747 35.75987244 C51.97014173 32.19514976 53.0788905 28.62885995 54.1875 25.0625 C54.94432375 22.63726438 55.70148156 20.21213298 56.45898438 17.78710938 C58.31048815 11.8594582 60.15505888 5.92971295 62 0 C69.92 0 77.84 0 86 0 C82.62474834 10.12575499 82.62474834 10.12575499 81.1340332 14.09472656 C80.79970779 14.98726135 80.46538239 15.87979614 80.1209259 16.79937744 C79.76777817 17.73698914 79.41463043 18.67460083 79.05078125 19.640625 C78.67447067 20.64349548 78.2981601 21.64636597 77.91044617 22.67962646 C77.11530382 24.79777507 76.31937619 26.91562904 75.52270508 29.03320312 C74.33183793 32.19859863 73.14322576 35.36483285 71.95507812 38.53125 C70.0241781 43.67435732 68.08806808 48.81547845 66.14849854 53.95532227 C65.3741199 56.00820549 64.60066161 58.06143608 63.82806396 60.11499023 C62.71492627 63.07248973 61.5982017 66.02860964 60.48046875 68.984375 C60.14324295 69.88206604 59.80601715 70.77975708 59.45857239 71.70465088 C59.14893051 72.5210907 58.83928864 73.33753052 58.52026367 74.17871094 C58.24961594 74.89573181 57.9789682 75.61275269 57.70011902 76.35150146 C57 78 57 78 56 79 C54.07332493 79.08748207 52.14348139 79.10697334 50.21484375 79.09765625 C48.46010742 79.09282227 48.46010742 79.09282227 46.66992188 79.08789062 C45.43822266 79.07951172 44.20652344 79.07113281 42.9375 79.0625 C41.08415039 79.05573242 41.08415039 79.05573242 39.19335938 79.04882812 C36.12885651 79.03699607 33.06445964 79.01967435 30 79 C26.71124905 71.21438443 23.56268464 63.39082164 20.56640625 55.48828125 C20.16598618 54.43577682 19.7655661 53.3832724 19.35301208 52.2988739 C18.51263358 50.08836222 17.67321237 47.87748637 16.8347168 45.66625977 C15.57176911 42.3369348 14.30465262 39.00921826 13.03710938 35.68164062 C8.53468844 23.83840956 4.15645256 11.96923168 0 0 Z " fill="#00007C" transform="translate(877,161)"/>
<path d="M0 0 C7.59 0 15.18 0 23 0 C23 26.07 23 52.14 23 79 C15.41 79 7.82 79 0 79 C0 52.93 0 26.86 0 0 Z " fill="#8585F7" transform="translate(1007,161)"/>
<path d="M0 0 C3.29034529 3.85211156 4.42783723 6.9501463 4.5625 12 C4.02704072 15.80176091 2.91601446 18.70485813 0.11328125 21.38671875 C-4.43980665 24.41149743 -9.11029128 24.80538857 -14.4375 24 C-18.63890665 22.44392346 -21.13998122 20.86950532 -23.4375 17 C-25.04958668 12.16373995 -25.16505475 7.8817438 -22.9375 3.25 C-20.77793885 -0.11436895 -18.44934479 -1.49367753 -14.65234375 -2.625 C-9.04260454 -3.57479711 -4.9131983 -2.8585881 0 0 Z " fill="#00007C" transform="translate(984.4375,218)"/>
<path d="M0 0 C3.21819472 2.41364604 4.28779498 4.02446642 5.5 7.875 C5.78841471 12.83048915 5.23903997 15.94147583 2.125 19.875 C-2.93794803 23.73248421 -8.37334652 23.37806832 -14.5 22.875 C-18.20162323 21.33265699 -20.69501491 19.48497018 -22.5 15.875 C-23.08703194 11.5888627 -22.97084867 8.0149494 -21.3125 4 C-15.68583679 -2.59677755 -7.88733378 -2.53521443 0 0 Z " fill="#8585F7" transform="translate(1027.5,127.125)"/>
<path d="M0 0 C16.17 0 32.34 0 49 0 C49 0.66 49 1.32 49 2 C52.63 2 56.26 2 60 2 C60 2.66 60 3.32 60 4 C61.98 4 63.96 4 66 4 C65.67 4.66 65.34 5.32 65 6 C63.02 6 61.04 6 59 6 C59 5.34 59 4.68 59 4 C35.9 4 12.8 4 -11 4 C-11 3.34 -11 2.68 -11 2 C-7.37 2 -3.74 2 0 2 C0 1.34 0 0.68 0 0 Z " fill="#7C7CBA" transform="translate(155,21)"/>
<path d="M0 0 C0.66386719 0.14308594 1.32773438 0.28617187 2.01171875 0.43359375 C5.59583713 1.11293645 9.1961572 1.59531696 12.8125 2.0625 C13.85180664 2.19881836 13.85180664 2.19881836 14.91210938 2.33789062 C16.60787692 2.56009465 18.30391201 2.78025527 20 3 C20 3.66 20 4.32 20 5 C38.48 5 56.96 5 76 5 C76 5.66 76 6.32 76 7 C67.294634 8.04061421 58.62861179 8.15450672 49.87573242 8.13037109 C47.57008262 8.12501761 45.26462824 8.13034347 42.95898438 8.13671875 C34.58937489 8.14008721 26.33266996 7.88970987 18 7 C18 6.34 18 5.68 18 5 C16.205625 5.0309375 16.205625 5.0309375 14.375 5.0625 C10.81995131 5.06882571 7.49444376 4.69888875 4 4 C4 3.34 4 2.68 4 2 C2.35 2 0.7 2 -1 2 C-0.67 1.34 -0.34 0.68 0 0 Z " fill="#CECEFB" transform="translate(188,288)"/>
<path d="M0 0 C0.66 0 1.32 0 2 0 C1.67 2.97 1.34 5.94 1 9 C0.34 9 -0.32 9 -1 9 C-1.04898437 9.61746094 -1.09796875 10.23492187 -1.1484375 10.87109375 C-1.22320313 11.71800781 -1.29796875 12.56492187 -1.375 13.4375 C-1.44460937 14.26121094 -1.51421875 15.08492187 -1.5859375 15.93359375 C-1.91790337 18.39202027 -2.40457138 20.55339655 -3.03125 22.9375 C-4.51724738 29.4162593 -4.21290634 35.95261977 -4.125 42.5625 C-4.11597656 43.85736328 -4.10695313 45.15222656 -4.09765625 46.48632812 C-4.07425094 49.65774771 -4.04146228 52.82877373 -4 56 C-4.66 56 -5.32 56 -6 56 C-6 53.03 -6 50.06 -6 47 C-6.66 47 -7.32 47 -8 47 C-8 40.4 -8 33.8 -8 27 C-7.34 27 -6.68 27 -6 27 C-6.01160156 26.40832031 -6.02320312 25.81664062 -6.03515625 25.20703125 C-6.08322386 20.99768215 -6.06006883 17.1077667 -5 13 C-4.34 13 -3.68 13 -3 13 C-2.67 9.7 -2.34 6.4 -2 3 C-1.34 3 -0.68 3 0 3 C0 2.01 0 1.02 0 0 Z " fill="#8585C0" transform="translate(28,104)"/>
<path d="M0 0 C7.6279537 0.45496678 15.25565833 0.91603586 22.875 1.5 C24.29425781 1.60828125 24.29425781 1.60828125 25.7421875 1.71875 C28 2 28 2 30 3 C31.54023996 3.06950541 33.08334988 3.08452357 34.625 3.0625 C35.44226563 3.05347656 36.25953125 3.04445313 37.1015625 3.03515625 C37.72804688 3.02355469 38.35453125 3.01195312 39 3 C39 2.34 39 1.68 39 1 C41.475 1.495 41.475 1.495 44 2 C44 3.32 44 4.64 44 6 C43.34 6 42.68 6 42 6 C42 6.66 42 7.32 42 8 C40.33324219 7.80083984 40.33324219 7.80083984 38.6328125 7.59765625 C30.76101316 6.66156951 22.89203146 5.75162204 15 5 C15 4.34 15 3.68 15 3 C10.05 2.67 5.1 2.34 0 2 C0 1.34 0 0.68 0 0 Z " fill="#B6B6FA" transform="translate(333,304)"/>
<path d="M0 0 C1.32 0 2.64 0 4 0 C3.67 1.32 3.34 2.64 3 4 C8.94 4.33 14.88 4.66 21 5 C21 4.34 21 3.68 21 3 C22.258125 2.95875 23.51625 2.9175 24.8125 2.875 C25.52019531 2.85179687 26.22789063 2.82859375 26.95703125 2.8046875 C29 3 29 3 32 5 C29.03 5 26.06 5 23 5 C23 5.66 23 6.32 23 7 C13.33456945 8.1922117 3.71824449 8.09622024 -6 8 C-6 6.68 -6 5.36 -6 4 C-4.35 3.67 -2.7 3.34 -1 3 C-0.67 2.01 -0.34 1.02 0 0 Z " fill="#5555A8" transform="translate(26,274)"/>
<path d="M0 0 C2.64 0 5.28 0 8 0 C7.67 0.99 7.34 1.98 7 3 C3.7 3.33 0.4 3.66 -3 4 C-3 4.66 -3 5.32 -3 6 C-3.85722656 6.10957031 -4.71445313 6.21914063 -5.59765625 6.33203125 C-11.93992387 7.21151143 -17.22022362 8.29457276 -23 11 C-24.32 11 -25.64 11 -27 11 C-27 10.34 -27 9.68 -27 9 C-24.36 8.67 -21.72 8.34 -19 8 C-19 7.34 -19 6.68 -19 6 C-17.02 5.67 -15.04 5.34 -13 5 C-13 4.34 -13 3.68 -13 3 C-6.565 2.505 -6.565 2.505 0 2 C0 1.34 0 0.68 0 0 Z " fill="#A6A6D1" transform="translate(129,26)"/>
<path d="M0 0 C0 0.66 0 1.32 0 2 C0.99 2 1.98 2 3 2 C4.6875 3.375 4.6875 3.375 6 5 C6 5.66 6 6.32 6 7 C3.525 6.505 3.525 6.505 1 6 C1 5.34 1 4.68 1 4 C-1.475 3.505 -1.475 3.505 -4 3 C-4 2.34 -4 1.68 -4 1 C-4.66 1 -5.32 1 -6 1 C-6 1.66 -6 2.32 -6 3 C-12.435 3.495 -12.435 3.495 -19 4 C-19 3.34 -19 2.68 -19 2 C-4.60579065 -2.30289532 -4.60579065 -2.30289532 0 0 Z " fill="#C6C6FB" transform="translate(301,286)"/>
<path d="M0 0 C0.66 0 1.32 0 2 0 C1.67 2.97 1.34 5.94 1 9 C0.34 9 -0.32 9 -1 9 C-1.04898437 9.64066406 -1.09796875 10.28132813 -1.1484375 10.94140625 C-1.6040145 16.21196085 -2.3597379 20.96986288 -4 26 C-4.66 26 -5.32 26 -6 26 C-6.07654536 21.48382401 -6.10228696 17.40914783 -5 13 C-4.34 13 -3.68 13 -3 13 C-2.67 9.7 -2.34 6.4 -2 3 C-1.34 3 -0.68 3 0 3 C0 2.01 0 1.02 0 0 Z " fill="#6B6BB3" transform="translate(28,104)"/>
<path d="M0 0 C0 0.66 0 1.32 0 2 C-1.98 2.33 -3.96 2.66 -6 3 C-6 3.66 -6 4.32 -6 5 C-11.445 5.495 -11.445 5.495 -17 6 C-17 6.66 -17 7.32 -17 8 C-19.64 8 -22.28 8 -25 8 C-25 7.01 -25 6.02 -25 5 C-23.12612523 4.6603981 -21.25083303 4.32861309 -19.375 4 C-18.33085938 3.814375 -17.28671875 3.62875 -16.2109375 3.4375 C-13.09425135 3.01284203 -10.14069188 2.92454794 -7 3 C-7 2.34 -7 1.68 -7 1 C-4.50935112 0.31292445 -2.62113708 0 0 0 Z " fill="#ACACD5" transform="translate(83,270)"/>
<path d="M0 0 C4.93930564 1.64643521 6.3970208 4.66170134 9 9 C9.556875 9.53625 10.11375 10.0725 10.6875 10.625 C12 12 12 12 12 15 C12.66 15 13.32 15 14 15 C14.33 16.65 14.66 18.3 15 20 C14.01 20 13.02 20 12 20 C12 19.01 12 18.02 12 17 C11.34 17 10.68 17 10 17 C9.67 15.35 9.34 13.7 9 12 C8.01 11.67 7.02 11.34 6 11 C6 10.01 6 9.02 6 8 C5.34 8 4.68 8 4 8 C4 7.34 4 6.68 4 6 C3.01 5.67 2.02 5.34 1 5 C0.67 3.35 0.34 1.7 0 0 Z " fill="#D1D1FC" transform="translate(351,124)"/>
<path d="M0 0 C4.84688192 0.78175515 9.3766367 2.39844278 14 4 C14 4.66 14 5.32 14 6 C15.65 6 17.3 6 19 6 C19 6.66 19 7.32 19 8 C20.32 8 21.64 8 23 8 C23 8.66 23 9.32 23 10 C21.35 10 19.7 10 18 10 C18 9.34 18 8.68 18 8 C15.03 7.67 12.06 7.34 9 7 C9 6.34 9 5.68 9 5 C8.01 5 7.02 5 6 5 C6 4.34 6 3.68 6 3 C3.03 2.505 3.03 2.505 0 2 C0 1.34 0 0.68 0 0 Z " fill="#D2D2FC" transform="translate(163,279)"/>
<path d="M0 0 C0.66 0 1.32 0 2 0 C1.3956044 6.40659341 1.3956044 6.40659341 -0.25 8.875 C-2.45167104 10.29035995 -4.42468508 10.65198447 -7 11 C-7 11.66 -7 12.32 -7 13 C-8.65 13.33 -10.3 13.66 -12 14 C-11.67 13.01 -11.34 12.02 -11 11 C-10.01 11 -9.02 11 -8 11 C-8 10.34 -8 9.68 -8 9 C-7.360625 8.896875 -6.72125 8.79375 -6.0625 8.6875 C-5.0415625 8.3471875 -5.0415625 8.3471875 -4 8 C-3.67 7.01 -3.34 6.02 -3 5 C-2.34 5 -1.68 5 -1 5 C-0.67 3.35 -0.34 1.7 0 0 Z " fill="#6666B0" transform="translate(68,243)"/>
<path d="M0 0 C0.66 0.33 1.32 0.66 2 1 C1.625 2.9375 1.625 2.9375 1 5 C0.01 5.495 0.01 5.495 -1 6 C-1.33 6.99 -1.66 7.98 -2 9 C-2.66 9 -3.32 9 -4 9 C-4 9.66 -4 10.32 -4 11 C-5.375 12.625 -5.375 12.625 -7 14 C-7.66 14 -8.32 14 -9 14 C-9.33 15.32 -9.66 16.64 -10 18 C-10.66 18 -11.32 18 -12 18 C-11.62403791 15.21788056 -11.32681541 13.4120716 -9.5625 11.1875 C-8 10 -8 10 -6 10 C-5.67 8.68 -5.34 7.36 -5 6 C-4.34 6 -3.68 6 -3 6 C-3 5.34 -3 4.68 -3 4 C-2.34 4 -1.68 4 -1 4 C-0.67 2.68 -0.34 1.36 0 0 Z " fill="#D0D0FB" transform="translate(361,233)"/>
<path d="M0 0 C2.475 0.495 2.475 0.495 5 1 C5 1.66 5 2.32 5 3 C6.32 3.33 7.64 3.66 9 4 C9 4.66 9 5.32 9 6 C9.94875 6.0825 10.8975 6.165 11.875 6.25 C15 7 15 7 16.375 9.0625 C16.58125 9.701875 16.7875 10.34125 17 11 C16.34 11 15.68 11 15 11 C15 10.34 15 9.68 15 9 C10.545 8.01 10.545 8.01 6 7 C6 6.34 6 5.68 6 5 C5.01 5 4.02 5 3 5 C3 4.34 3 3.68 3 3 C2.01 2.67 1.02 2.34 0 2 C0 1.34 0 0.68 0 0 Z " fill="#C7C7FC" transform="translate(346,288)"/>
<path d="M0 0 C2.64 0 5.28 0 8 0 C7.67 0.99 7.34 1.98 7 3 C3.7 3.33 0.4 3.66 -3 4 C-3 4.66 -3 5.32 -3 6 C-7.455 6.495 -7.455 6.495 -12 7 C-11.67 6.34 -11.34 5.68 -11 5 C-9.35 5 -7.7 5 -6 5 C-6 4.34 -6 3.68 -6 3 C-4.02 2.67 -2.04 2.34 0 2 C0 1.34 0 0.68 0 0 Z " fill="#6E6EB3" transform="translate(129,26)"/>
<path d="M0 0 C1.65 0.33 3.3 0.66 5 1 C5 2.32 5 3.64 5 5 C4.34 5 3.68 5 3 5 C3 5.66 3 6.32 3 7 C-2.61 6.34 -8.22 5.68 -14 5 C-14 4.67 -14 4.34 -14 4 C-8.72 4 -3.44 4 2 4 C2 3.34 2 2.68 2 2 C1.34 2 0.68 2 0 2 C0 1.34 0 0.68 0 0 Z " fill="#D2D2FC" transform="translate(372,305)"/>
<path d="M0 0 C0.99 0.33 1.98 0.66 3 1 C3 1.99 3 2.98 3 4 C3.66 4 4.32 4 5 4 C5.33 5.65 5.66 7.3 6 9 C6.66 9 7.32 9 8 9 C8.33 10.98 8.66 12.96 9 15 C8.01 14.67 7.02 14.34 6 14 C6 13.01 6 12.02 6 11 C5.34 11 4.68 11 4 11 C3.67 9.35 3.34 7.7 3 6 C2.34 6 1.68 6 1 6 C0.67 4.02 0.34 2.04 0 0 Z " fill="#A1A1CE" transform="translate(33,185)"/>
<path d="M0 0 C0 0.66 0 1.32 0 2 C-1.98 2.33 -3.96 2.66 -6 3 C-6 3.66 -6 4.32 -6 5 C-7.65 5.33 -9.3 5.66 -11 6 C-11 6.66 -11 7.32 -11 8 C-12.98 8.33 -14.96 8.66 -17 9 C-16.67 8.01 -16.34 7.02 -16 6 C-15.01 6 -14.02 6 -13 6 C-13 5.34 -13 4.68 -13 4 C-11.02 3.67 -9.04 3.34 -7 3 C-7 2.34 -7 1.68 -7 1 C-4.50935112 0.31292445 -2.62113708 0 0 0 Z " fill="#9595C7" transform="translate(98,39)"/>
<path d="M0 0 C2.475 0.495 2.475 0.495 5 1 C5 1.66 5 2.32 5 3 C5.99 3.33 6.98 3.66 8 4 C8 4.66 8 5.32 8 6 C8.66 6 9.32 6 10 6 C11.625 7.375 11.625 7.375 13 9 C13 9.66 13 10.32 13 11 C11.35 10.67 9.7 10.34 8 10 C8 9.34 8 8.68 8 8 C7.34 8 6.68 8 6 8 C4.64613064 6.34997172 3.31321858 4.6825613 2 3 C1.34 2.67 0.68 2.34 0 2 C0 1.34 0 0.68 0 0 Z " fill="#D6D6FC" transform="translate(338,113)"/>
<path d="M0 0 C0.66 0 1.32 0 2 0 C2 1.32 2 2.64 2 4 C2.66 4 3.32 4 4 4 C4.84681133 9.08086796 5.09038099 13.84828377 5 19 C4.34 19 3.68 19 3 19 C2.67 14.38 2.34 9.76 2 5 C1.34 5 0.68 5 0 5 C0 3.35 0 1.7 0 0 Z " fill="#D8D8FD" transform="translate(372,158)"/>
<path d="M0 0 C1.32 0 2.64 0 4 0 C4 0.66 4 1.32 4 2 C3.01 2 2.02 2 1 2 C0.67 2.99 0.34 3.98 0 5 C-1.32303717 5.3721042 -2.65737935 5.70630173 -4 6 C-4.33 6.66 -4.66 7.32 -5 8 C-5.99 8 -6.98 8 -8 8 C-8.33 8.99 -8.66 9.98 -9 11 C-9.99 11 -10.98 11 -12 11 C-12 9 -12 9 -10.6875 7.375 C-9 6 -9 6 -6 6 C-6 5.34 -6 4.68 -6 4 C-4.35 3.67 -2.7 3.34 -1 3 C-0.67 2.01 -0.34 1.02 0 0 Z " fill="#9A9ACB" transform="translate(77,48)"/>
<path d="M0 0 C1.65 0 3.3 0 5 0 C5 0.66 5 1.32 5 2 C8.96 2.33 12.92 2.66 17 3 C17 3.66 17 4.32 17 5 C12.48382401 5.07654536 8.40914783 5.10228696 4 4 C4 3.34 4 2.68 4 2 C2.68 2 1.36 2 0 2 C0 1.34 0 0.68 0 0 Z " fill="#B0B0D8" transform="translate(225,26)"/>
<path d="M0 0 C0 1.32 0 2.64 0 4 C-6.435 4.495 -6.435 4.495 -13 5 C-13 4.34 -13 3.68 -13 3 C-11.2092015 2.49689942 -9.41733089 1.99761372 -7.625 1.5 C-6.62726563 1.2215625 -5.62953125 0.943125 -4.6015625 0.65625 C-2 0 -2 0 0 0 Z " fill="#B8B8FA" transform="translate(295,285)"/>
<path d="M0 0 C-0.33420036 3.11920338 -0.94788534 3.95474254 -3.375 6.0625 C-4.24125 6.701875 -5.1075 7.34125 -6 8 C-6.556875 8.5775 -7.11375 9.155 -7.6875 9.75 C-9 11 -9 11 -11 11 C-10.67 10.01 -10.34 9.02 -10 8 C-9.34 8 -8.68 8 -8 8 C-8 7.34 -8 6.68 -8 6 C-7.34 6 -6.68 6 -6 6 C-5.814375 4.7934375 -5.814375 4.7934375 -5.625 3.5625 C-5.41875 2.716875 -5.2125 1.87125 -5 1 C-3 0 -3 0 0 0 Z " fill="#C1C1FB" transform="translate(349,251)"/>
<path d="M0 0 C2.31 0 4.62 0 7 0 C7 0.66 7 1.32 7 2 C8.32 2 9.64 2 11 2 C11 2.66 11 3.32 11 4 C9.35 4 7.7 4 6 4 C6 3.34 6 2.68 6 2 C4.35 2 2.7 2 1 2 C1 2.66 1 3.32 1 4 C-0.65 4.33 -2.3 4.66 -4 5 C-3.67 4.01 -3.34 3.02 -3 2 C-2.01 2 -1.02 2 0 2 C0 1.34 0 0.68 0 0 Z " fill="#B4B4D7" transform="translate(110,254)"/>
<path d="M0 0 C-0.33 1.32 -0.66 2.64 -1 4 C3.62 4 8.24 4 13 4 C13 4.33 13 4.66 13 5 C7.06 5 1.12 5 -5 5 C-5 3.68 -5 2.36 -5 1 C-3 0 -3 0 0 0 Z " fill="#CACAE5" transform="translate(25,277)"/>
<path d="M0 0 C0.66 0 1.32 0 2 0 C1.67 2.97 1.34 5.94 1 9 C0.34 9 -0.32 9 -1 9 C-1 9.99 -1 10.98 -1 12 C-1.66 12 -2.32 12 -3 12 C-2.67 9.03 -2.34 6.06 -2 3 C-1.34 3 -0.68 3 0 3 C0 2.01 0 1.02 0 0 Z " fill="#9191C7" transform="translate(28,104)"/>
<path d="M0 0 C-0.33 0.66 -0.66 1.32 -1 2 C-5.96098482 3.24024621 -10.92441192 3.10151176 -16 3 C-16 2.34 -16 1.68 -16 1 C-10.61509359 0.08342019 -5.45769811 -0.11138159 0 0 Z " fill="#C8C8FB" transform="translate(280,290)"/>
<path d="M0 0 C0.66 0 1.32 0 2 0 C1.71915428 4.02545534 1.21634296 5.74482626 -1.4375 8.875 C-4 11 -4 11 -6 11 C-5.67 9.35 -5.34 7.7 -5 6 C-4.34 6 -3.68 6 -3 6 C-2.67 5.01 -2.34 4.02 -2 3 C-1.34 3 -0.68 3 0 3 C0 2.01 0 1.02 0 0 Z " fill="#7979BA" transform="translate(45,76)"/>
<path d="M0 0 C5.70709064 0.46588495 9.15939723 1.93757784 14 5 C10.94736336 5.98120464 9.05263664 5.98120464 6 5 C6 4.34 6 3.68 6 3 C3.03 2.505 3.03 2.505 0 2 C0 1.34 0 0.68 0 0 Z " fill="#D1D1FC" transform="translate(307,293)"/>
<path d="M0 0 C1.258125 -0.04125 2.51625 -0.0825 3.8125 -0.125 C4.52019531 -0.14820313 5.22789063 -0.17140625 5.95703125 -0.1953125 C8 0 8 0 11 2 C8.03 2 5.06 2 2 2 C2 2.66 2 3.32 2 4 C0.02 4 -1.96 4 -4 4 C-4 3.34 -4 2.68 -4 2 C-2.68 2 -1.36 2 0 2 C0 1.34 0 0.68 0 0 Z " fill="#8E8EC4" transform="translate(47,277)"/>
<path d="M0 0 C2.475 0.495 2.475 0.495 5 1 C5.33 2.65 5.66 4.3 6 6 C6.66 6 7.32 6 8 6 C9.625 7.375 9.625 7.375 11 9 C11 9.66 11 10.32 11 11 C7.63820226 9.55922954 5.40843732 7.75249979 3 5 C3 4.34 3 3.68 3 3 C2.01 2.67 1.02 2.34 0 2 C0 1.34 0 0.68 0 0 Z " fill="#A1A1CD" transform="translate(53,214)"/>
<path d="M0 0 C2.475 0.495 2.475 0.495 5 1 C5 1.66 5 2.32 5 3 C7.97 3.495 7.97 3.495 11 4 C11 4.66 11 5.32 11 6 C7.7 5.34 4.4 4.68 1 4 C0.67 2.68 0.34 1.36 0 0 Z " fill="#7E7EBF" transform="translate(273,45)"/>
<path d="M0 0 C2.31 0.33 4.62 0.66 7 1 C7 1.66 7 2.32 7 3 C8.32 3 9.64 3 11 3 C11 3.66 11 4.32 11 5 C8.03 4.67 5.06 4.34 2 4 C2 3.34 2 2.68 2 2 C1.34 2 0.68 2 0 2 C0 1.34 0 0.68 0 0 Z " fill="#CECEFB" transform="translate(322,299)"/>
<path d="M0 0 C-0.66 1.32 -1.32 2.64 -2 4 C-4.64 4 -7.28 4 -10 4 C-10 3.01 -10 2.02 -10 1 C-6.59437148 0.22157062 -3.49234244 -0.09978121 0 0 Z " fill="#8787C1" transform="translate(68,274)"/>
<path d="M0 0 C0 0.66 0 1.32 0 2 C-0.99 2 -1.98 2 -3 2 C-3 2.66 -3 3.32 -3 4 C-5.64 4.33 -8.28 4.66 -11 5 C-11 4.34 -11 3.68 -11 3 C-10.01 3 -9.02 3 -8 3 C-8 2.34 -8 1.68 -8 1 C-5.07175348 0.02391783 -3.04386724 -0.08226668 0 0 Z " fill="#8D8DC5" transform="translate(95,265)"/>
<path d="M0 0 C-0.1875 1.875 -0.1875 1.875 -1 4 C-3.89111788 5.52164099 -5.71823412 6 -9 6 C-8.67 5.01 -8.34 4.02 -8 3 C-7.01 3 -6.02 3 -5 3 C-5 2.34 -5 1.68 -5 1 C-3 0 -3 0 0 0 Z " fill="#8C8CC4" transform="translate(56,257)"/>
<path d="M0 0 C2.475 0.495 2.475 0.495 5 1 C5 1.66 5 2.32 5 3 C5.99 3 6.98 3 8 3 C8 4.98 8 6.96 8 9 C7.34 9 6.68 9 6 9 C6 7.68 6 6.36 6 5 C5.34 5 4.68 5 4 5 C4 4.34 4 3.68 4 3 C2.68 2.67 1.36 2.34 0 2 C0 1.34 0 0.68 0 0 Z " fill="#7373B5" transform="translate(67,228)"/>
<path d="M0 0 C0.66 0 1.32 0 2 0 C1.67 1.65 1.34 3.3 1 5 C0.34 5 -0.32 5 -1 5 C-1.33 6.98 -1.66 8.96 -2 11 C-2.66 11 -3.32 11 -4 11 C-3.67 8.69 -3.34 6.38 -3 4 C-2.34 4 -1.68 4 -1 4 C-0.67 2.68 -0.34 1.36 0 0 Z " fill="#C7C7FB" transform="translate(367,222)"/>
<path d="M0 0 C0.66 0 1.32 0 2 0 C1.32829194 3.8063457 0.27253436 7.35206816 -1 11 C-1.66 11 -2.32 11 -3 11 C-2.67 8.36 -2.34 5.72 -2 3 C-1.34 3 -0.68 3 0 3 C0 2.01 0 1.02 0 0 Z " fill="#D3D3FC" transform="translate(372,211)"/>
<path d="M0 0 C0.99 0.33 1.98 0.66 3 1 C3 1.66 3 2.32 3 3 C3.99 3.33 4.98 3.66 6 4 C6 4.99 6 5.98 6 7 C6.66 7 7.32 7 8 7 C8 7.66 8 8.32 8 9 C6.68 8.67 5.36 8.34 4 8 C4 7.34 4 6.68 4 6 C3.01 5.67 2.02 5.34 1 5 C0.67 3.35 0.34 1.7 0 0 Z " fill="#8585BE" transform="translate(312,76)"/>
<path d="M0 0 C0.33 0.66 0.66 1.32 1 2 C0.06553465 4.03144641 -0.93224776 6.03533587 -2 8 C-3.32 8 -4.64 8 -6 8 C-5.65120368 4.74456771 -4.97866739 3.98126893 -2.4375 1.75 C-1.633125 1.1725 -0.82875 0.595 0 0 Z " fill="#8F8FC7" transform="translate(56,65)"/>
<path d="M0 0 C2.31 0.33 4.62 0.66 7 1 C7 1.66 7 2.32 7 3 C7.99 3 8.98 3 10 3 C10 3.66 10 4.32 10 5 C7.36 4.67 4.72 4.34 2 4 C2 3.34 2 2.68 2 2 C1.34 2 0.68 2 0 2 C0 1.34 0 0.68 0 0 Z " fill="#9A9ACB" transform="translate(251,34)"/>
<path d="M0 0 C2.97 0.495 2.97 0.495 6 1 C6 1.66 6 2.32 6 3 C6.99 3.33 7.98 3.66 9 4 C9 4.66 9 5.32 9 6 C7.35 5.67 5.7 5.34 4 5 C4 4.34 4 3.68 4 3 C2.68 2.67 1.36 2.34 0 2 C0 1.34 0 0.68 0 0 Z " fill="#D3D3FC" transform="translate(146,270)"/>
<path d="M0 0 C3.3 0 6.6 0 10 0 C10.33 0.99 10.66 1.98 11 3 C9.741875 3.020625 8.48375 3.04125 7.1875 3.0625 C6.47980469 3.07410156 5.77210937 3.08570313 5.04296875 3.09765625 C3 3 3 3 0 2 C0 1.34 0 0.68 0 0 Z " fill="#8F8FCC" transform="translate(121,256)"/>
<path d="M0 0 C0.66 0 1.32 0 2 0 C2.33 1.98 2.66 3.96 3 6 C3.66 6 4.32 6 5 6 C5 7.65 5 9.3 5 11 C4.34 11 3.68 11 3 11 C0 4.5 0 4.5 0 0 Z " fill="#CDCDE5" transform="translate(25,169)"/>
<path d="M0 0 C2.475 0.495 2.475 0.495 5 1 C5 1.66 5 2.32 5 3 C5.99 3.33 6.98 3.66 8 4 C8 4.66 8 5.32 8 6 C6.35 5.67 4.7 5.34 3 5 C3 4.34 3 3.68 3 3 C2.01 2.67 1.02 2.34 0 2 C0 1.34 0 0.68 0 0 Z " fill="#9191C8" transform="translate(290,56)"/>
<path d="M0 0 C0.99 0.33 1.98 0.66 3 1 C3 1.99 3 2.98 3 4 C-0.96 3.67 -4.92 3.34 -9 3 C-8.67 2.34 -8.34 1.68 -8 1 C-5.36 1.33 -2.72 1.66 0 2 C0 1.34 0 0.68 0 0 Z " fill="#292996" transform="translate(126,253)"/>
<path d="M0 0 C0 0.66 0 1.32 0 2 C-0.99 2 -1.98 2 -3 2 C-3 2.66 -3 3.32 -3 4 C-7.455 4.495 -7.455 4.495 -12 5 C-11.67 4.34 -11.34 3.68 -11 3 C-9.35 3 -7.7 3 -6 3 C-6 2.34 -6 1.68 -6 1 C-3.92446352 0.4465236 -2.15634036 0 0 0 Z " fill="#3F3F9B" transform="translate(129,28)"/>
<path d="M0 0 C-0.33 0.99 -0.66 1.98 -1 3 C-1.66 3 -2.32 3 -3 3 C-3 3.66 -3 4.32 -3 5 C-4.65 5.33 -6.3 5.66 -8 6 C-7.67 5.01 -7.34 4.02 -7 3 C-6.01 3 -5.02 3 -4 3 C-4 2.34 -4 1.68 -4 1 C-2 0 -2 0 0 0 Z " fill="#8585C0" transform="translate(64,251)"/>
<path d="M0 0 C0 0.66 0 1.32 0 2 C-6.75 6 -6.75 6 -9 6 C-8.67 5.01 -8.34 4.02 -8 3 C-7.01 3 -6.02 3 -5 3 C-5 2.34 -5 1.68 -5 1 C-3 0 -3 0 0 0 Z " fill="#A1A1CD" transform="translate(39,268)"/>
<path d="M0 0 C0.99 0 1.98 0 3 0 C2.67 2.97 2.34 5.94 2 9 C1.34 9 0.68 9 0 9 C0 6.03 0 3.06 0 0 Z " fill="#E9E9FE" transform="translate(332,265)"/>
<path d="M0 0 C0.66 0 1.32 0 2 0 C1.67 1.32 1.34 2.64 1 4 C-1.31 4.33 -3.62 4.66 -6 5 C-6 4.34 -6 3.68 -6 3 C-4.02 2.67 -2.04 2.34 0 2 C0 1.34 0 0.68 0 0 Z " fill="#6969B1" transform="translate(45,263)"/>
<path d="M0 0 C2.64 0.33 5.28 0.66 8 1 C8 1.66 8 2.32 8 3 C5.36 2.67 2.72 2.34 0 2 C0 1.34 0 0.68 0 0 Z " fill="#CFCFF9" transform="translate(155,276)"/>
<path d="M0 0 C2.475 0.495 2.475 0.495 5 1 C5.33 2.32 5.66 3.64 6 5 C5.01 5 4.02 5 3 5 C3 4.34 3 3.68 3 3 C2.01 2.67 1.02 2.34 0 2 C0 1.34 0 0.68 0 0 Z " fill="#D8D8FC" transform="translate(135,262)"/>
<path d="M0 0 C2.99693138 0.99897713 4.02709413 1.65130253 6 4 C6 4.66 6 5.32 6 6 C4.35 5.67 2.7 5.34 1 5 C0.67 3.35 0.34 1.7 0 0 Z " fill="#E1E1FD" transform="translate(351,124)"/>
<path d="M0 0 C0.66 0 1.32 0 2 0 C2 0.99 2 1.98 2 3 C3.32 3.33 4.64 3.66 6 4 C6 4.66 6 5.32 6 6 C4.35 5.67 2.7 5.34 1 5 C0.67 3.35 0.34 1.7 0 0 Z " fill="#CACAF6" transform="translate(332,107)"/>
<path d="M0 0 C0.66 0 1.32 0 2 0 C2 0.66 2 1.32 2 2 C2.99 2.33 3.98 2.66 5 3 C5 3.66 5 4.32 5 5 C3.35 4.67 1.7 4.34 0 4 C0 2.68 0 1.36 0 0 Z " fill="#CDCDFC" transform="translate(338,280)"/>
<path d="M0 0 C0 0.66 0 1.32 0 2 C-4.47058824 6 -4.47058824 6 -7 6 C-6.67 5.01 -6.34 4.02 -6 3 C-5.34 3 -4.68 3 -4 3 C-4 2.34 -4 1.68 -4 1 C-2 0 -2 0 0 0 Z " fill="#D2D2FA" transform="translate(345,256)"/>
<path d="M0 0 C2.475 0.495 2.475 0.495 5 1 C5.33 2.65 5.66 4.3 6 6 C5.01 5.67 4.02 5.34 3 5 C3 4.34 3 3.68 3 3 C2.01 2.67 1.02 2.34 0 2 C0 1.34 0 0.68 0 0 Z " fill="#9797C9" transform="translate(301,65)"/>
<path d="M0 0 C2.475 0.495 2.475 0.495 5 1 C5.33 2.32 5.66 3.64 6 5 C5.01 5 4.02 5 3 5 C3 4.34 3 3.68 3 3 C2.01 2.67 1.02 2.34 0 2 C0 1.34 0 0.68 0 0 Z " fill="#AAAAD4" transform="translate(284,51)"/>
</svg>
