<?xml version="1.0" encoding="UTF-8"?>
<svg version="1.1" xmlns="http://www.w3.org/2000/svg" width="375" height="126">
<path d="M0 0 C0.91136719 0.34933594 1.82273437 0.69867188 2.76171875 1.05859375 C11.90068631 4.97529413 20.25947715 12.99210169 26 21 C26.33 22.216875 26.66 23.43375 27 24.6875 C27.61277269 28.03624485 27.61277269 28.03624485 29.8125 29.125 C30.8953125 29.558125 30.8953125 29.558125 32 30 C39.32526489 36.36141424 44.44003103 44.26287328 45.25 54.0078125 C45.71135414 66.43553967 41.06219507 74.66390831 33 84 C32.34 84 31.68 84 31 84 C30.505 85.485 30.505 85.485 30 87 C29.34 87 28.68 87 28 87 C31.45608477 92.76014128 34.84015914 95.44607979 40.79296875 98.54296875 C43.22019764 100.14536941 43.97297703 101.32056018 45 104 C36.17353473 104.72052778 26.66401777 102.35470484 18.7890625 98.37890625 C16.1714389 97.08475901 14.84782711 96.63134054 12 96.75 C11.38125 96.76546875 10.7625 96.7809375 10.125 96.796875 C7.91294833 96.9740703 7.91294833 96.9740703 5.41796875 97.5 C-12.77342594 100.16114117 -27.73519961 96.99018016 -44 89 C-44 88.34 -44 87.68 -44 87 C-47.67253776 84.79647734 -50.70503414 84 -55 84 C-58.06462453 85.31341051 -60.95093888 86.85746731 -63.890625 88.4296875 C-72.41521439 92.73481933 -80.56463114 93.44459853 -90 93 C-90 92.34 -90 91.68 -90 91 C-88.47119141 89.85839844 -88.47119141 89.85839844 -86.3515625 88.609375 C-85.59359375 88.14660156 -84.835625 87.68382813 -84.0546875 87.20703125 C-82.44751345 86.2432436 -80.83556883 85.28736258 -79.21875 84.33984375 C-74.38906633 81.39664042 -74.38906633 81.39664042 -71.4609375 76.640625 C-71.30882813 75.76921875 -71.15671875 74.8978125 -71 74 C-72.010625 73.21625 -73.02125 72.4325 -74.0625 71.625 C-83.28495488 63.69070177 -89.23582819 52.55872428 -90.3125 40.5 C-90.08768255 29.64744856 -85.2861069 19.86962629 -78 12 C-77.34 12 -76.68 12 -76 12 C-76 11.34 -76 10.68 -76 10 C-73.9260744 8.43168838 -71.87749317 7.01485767 -69.6875 5.625 C-69.05247559 5.22015381 -68.41745117 4.81530762 -67.76318359 4.39819336 C-62.42497285 1.08909181 -57.06075582 -1.30474511 -51 -3 C-49.84242187 -3.35320313 -48.68484375 -3.70640625 -47.4921875 -4.0703125 C-32.20453547 -7.80351053 -14.34732191 -6.2281603 0 0 Z " fill="#8686F6" transform="translate(97,13)"/>
<path d="M0 0 C0.91136719 0.34933594 1.82273437 0.69867188 2.76171875 1.05859375 C11.90255257 4.97609396 20.25591906 12.99269823 26 21 C26.75 24.3125 26.75 24.3125 27 27 C22.44758351 25.56239479 18.06367805 23.8330107 13.66015625 22 C-0.87108359 16.53744875 -18.09234073 17.15378601 -32.625 22.421875 C-36.85532347 24.39994292 -40.52798201 26.74173485 -44.1796875 29.64453125 C-46 31 -46 31 -48 31 C-48 31.66 -48 32.32 -48 33 C-48.721875 33.680625 -49.44375 34.36125 -50.1875 35.0625 C-56.44325546 41.05091548 -59.1050622 48.5281059 -59.375 57 C-59.31238506 66.26701103 -56.11162633 74.05719249 -50 81 C-49.01 81.495 -49.01 81.495 -48 82 C-48 82.66 -48 83.32 -48 84 C-49.36125 83.814375 -49.36125 83.814375 -50.75 83.625 C-54.66710953 83.60130781 -57.31775756 85.0025284 -60.75 86.8125 C-70.52595748 91.95582091 -78.98726541 93.51892467 -90 93 C-90 92.34 -90 91.68 -90 91 C-88.47119141 89.85839844 -88.47119141 89.85839844 -86.3515625 88.609375 C-85.59359375 88.14660156 -84.835625 87.68382813 -84.0546875 87.20703125 C-82.44751345 86.2432436 -80.83556883 85.28736258 -79.21875 84.33984375 C-74.38906633 81.39664042 -74.38906633 81.39664042 -71.4609375 76.640625 C-71.30882813 75.76921875 -71.15671875 74.8978125 -71 74 C-72.010625 73.21625 -73.02125 72.4325 -74.0625 71.625 C-83.28495488 63.69070177 -89.23582819 52.55872428 -90.3125 40.5 C-90.08768255 29.64744856 -85.2861069 19.86962629 -78 12 C-77.34 12 -76.68 12 -76 12 C-76 11.34 -76 10.68 -76 10 C-73.9260744 8.43168838 -71.87749317 7.01485767 -69.6875 5.625 C-69.05247559 5.22015381 -68.41745117 4.81530762 -67.76318359 4.39819336 C-62.42497285 1.08909181 -57.06075582 -1.30474511 -51 -3 C-49.84242187 -3.35320313 -48.68484375 -3.70640625 -47.4921875 -4.0703125 C-32.20453547 -7.80351053 -14.34732191 -6.2281603 0 0 Z " fill="#080880" transform="translate(97,13)"/>
<path d="M0 0 C3.01125 -0.0825 6.0225 -0.165 9.125 -0.25 C10.06230957 -0.28641602 10.99961914 -0.32283203 11.96533203 -0.36035156 C17.63039899 -0.43516182 20.67553897 0.26963425 25 4 C26.6124054 7.22481079 26.60679502 10.51415624 26 14 C24.56130936 16.39446415 22.99797988 18.00202012 21 20 C21.5053125 20.78246094 22.010625 21.56492187 22.53125 22.37109375 C23.1809375 23.38300781 23.830625 24.39492187 24.5 25.4375 C25.1496875 26.44683594 25.799375 27.45617187 26.46875 28.49609375 C28 31 28 31 28 32 C24.78177296 32.72245913 22.186061 32.94514728 19 32 C16.79502245 29.31227589 15.27056733 26.60316722 13.703125 23.50390625 C12.01694251 20.3962896 12.01694251 20.3962896 7 20 C7 23.96 7 27.92 7 32 C4.69 32 2.38 32 0 32 C0 21.44 0 10.88 0 0 Z M7 6 C7 8.64 7 11.28 7 14 C8.64574566 14.02688151 10.29161413 14.04634123 11.9375 14.0625 C13.31228516 14.07990234 13.31228516 14.07990234 14.71484375 14.09765625 C16.96593327 14.25949049 16.96593327 14.25949049 18 13 C18.2500773 10.54190002 18.2500773 10.54190002 18 8 C16.21342243 5.78629949 16.21342243 5.78629949 13.8359375 5.8046875 C13.02382812 5.82789063 12.21171875 5.85109375 11.375 5.875 C10.14910156 5.90207031 10.14910156 5.90207031 8.8984375 5.9296875 C7.95871094 5.96449219 7.95871094 5.96449219 7 6 Z " fill="#00007C" transform="translate(154,47)"/>
<path d="M0 0 C3.88636364 3.02272727 3.88636364 3.02272727 5.25 5.75 C5.49252172 8.79733819 5.38529279 11.68336339 5.25 14.75 C-0.03 14.75 -5.31 14.75 -10.75 14.75 C-10.09 15.74 -9.43 16.73 -8.75 17.75 C-4.69554358 18.18132515 -3.20029042 18.05019361 0.25 15.75 C2.9375 16.625 2.9375 16.625 5.25 17.75 C3.92770588 20.26235884 2.82298801 22.30434266 0.5625 24.0625 C-4.3088453 25.51073779 -8.37215176 25.2439456 -13.0625 23.5625 C-16.223255 21.43082803 -17.38281654 20.31986793 -18.75 16.75 C-19.43659894 11.68103499 -19.30175006 7.8943705 -17.0625 3.25 C-12.41513015 -1.77418362 -6.32019077 -2.87281399 0 0 Z M-8.75 4.75 C-10.235 6.73 -10.235 6.73 -11.75 8.75 C-8.45 8.75 -5.15 8.75 -1.75 8.75 C-2.41 7.43 -3.07 6.11 -3.75 4.75 C-6.12374861 4.41574265 -6.12374861 4.41574265 -8.75 4.75 Z " fill="#00007C" transform="translate(202.75,55.25)"/>
<path d="M0 0 C3.2186267 2.1213676 4.36898801 3.20652425 5.75 6.8125 C6.43659894 11.88146501 6.30175006 15.6681295 4.0625 20.3125 C0.63160574 24.02157488 -1.71594499 24.67304045 -6.6875 25.125 C-11.61819308 24.69248306 -14.77191091 23.438398 -18.125 19.75 C-19.79234588 15.39637466 -19.91249357 11.41314976 -19.25 6.8125 C-17.53803735 3.26176266 -16.31597467 1.44632277 -12.9375 -0.5625 C-8.22230955 -1.65905592 -4.57012389 -1.66985296 0 0 Z M-11.0625 6.4375 C-12.59040738 9.49331477 -12.67256988 11.43194093 -12.25 14.8125 C-11.21057155 17.25495747 -11.21057155 17.25495747 -9.25 18.8125 C-6.75 19.5625 -6.75 19.5625 -4.25 18.8125 C-2.18849513 16.79591617 -2.18849513 16.79591617 -1.25 13.8125 C-1.42761154 8.75556806 -1.42761154 8.75556806 -4.25 4.8125 C-7.37855548 4.33118377 -8.66827094 4.29094981 -11.0625 6.4375 Z " fill="#00007C" transform="translate(258.25,55.1875)"/>
<path d="M0 0 C3.38939556 2.13679285 4.72582557 3.1774767 6 7 C6.08021999 8.40824893 6.10765977 9.81997231 6.09765625 11.23046875 C6.09443359 12.03291016 6.09121094 12.83535156 6.08789062 13.66210938 C6.07951172 14.49548828 6.07113281 15.32886719 6.0625 16.1875 C6.05798828 17.03248047 6.05347656 17.87746094 6.04882812 18.74804688 C6.03705403 20.83206155 6.0191189 22.91603977 6 25 C3.36 25 0.72 25 -2 25 C-2.33 19.39 -2.66 13.78 -3 8 C-6.71702018 6.58483992 -6.71702018 6.58483992 -8.70703125 7.95703125 C-10.64422637 11.01791658 -10.57242711 14.16626969 -10.6875 17.6875 C-10.72166016 18.38939453 -10.75582031 19.09128906 -10.79101562 19.81445312 C-10.87329947 21.54241387 -10.9383324 23.27118072 -11 25 C-13.31 25 -15.62 25 -18 25 C-18 17.08 -18 9.16 -18 1 C-15 1 -12 1 -9 1 C-5.89951072 -0.55024464 -3.42105782 -0.28992015 0 0 Z " fill="#8585F7" transform="translate(366,54)"/>
<path d="M0 0 C3.38939556 2.13679285 4.72582557 3.1774767 6 7 C6.08021999 8.40824893 6.10765977 9.81997231 6.09765625 11.23046875 C6.09443359 12.03291016 6.09121094 12.83535156 6.08789062 13.66210938 C6.07951172 14.49548828 6.07113281 15.32886719 6.0625 16.1875 C6.05798828 17.03248047 6.05347656 17.87746094 6.04882812 18.74804688 C6.03705403 20.83206155 6.0191189 22.91603977 6 25 C3.36 25 0.72 25 -2 25 C-2.33 19.39 -2.66 13.78 -3 8 C-6.71702018 6.58483992 -6.71702018 6.58483992 -8.70703125 7.95703125 C-10.64422637 11.01791658 -10.57242711 14.16626969 -10.6875 17.6875 C-10.72166016 18.38939453 -10.75582031 19.09128906 -10.79101562 19.81445312 C-10.87329947 21.54241387 -10.9383324 23.27118072 -11 25 C-13.31 25 -15.62 25 -18 25 C-18 17.08 -18 9.16 -18 1 C-15 1 -12 1 -9 1 C-5.89951072 -0.55024464 -3.42105782 -0.28992015 0 0 Z " fill="#00007C" transform="translate(287,54)"/>
<path d="M0 0 C2.96385367 2.04647039 3.69849738 3.38444031 4.625 6.8125 C2.315 7.4725 0.005 8.1325 -2.375 8.8125 C-3.035 7.8225 -3.695 6.8325 -4.375 5.8125 C-6.875 5.3125 -6.875 5.3125 -9.375 5.8125 C-11.68832486 9.28248729 -11.71457563 10.73759248 -11.375 14.8125 C-10.715 15.8025 -10.055 16.7925 -9.375 17.8125 C-6.875 18.3125 -6.875 18.3125 -4.375 17.8125 C-3.715 16.8225 -3.055 15.8325 -2.375 14.8125 C0.5625 15.1875 0.5625 15.1875 3.625 15.8125 C3.955 16.4725 4.285 17.1325 4.625 17.8125 C3.37908501 20.43547893 2.24361236 22.33135706 -0.0625 24.125 C-4.95731226 25.58021446 -9.00262366 25.33037786 -13.6875 23.5625 C-16.4301779 21.77657021 -17.69225584 20.58151128 -19.375 17.8125 C-20.10738075 12.99458353 -19.98481191 8.35307745 -18.1875 3.8125 C-12.94311368 -1.97440904 -7.1125051 -2.50254809 0 0 Z " fill="#00007C" transform="translate(231.375,55.1875)"/>
<path d="M0 0 C2.64 0 5.28 0 8 0 C8.67413211 1.91405367 9.3390332 3.83136026 10 5.75 C10.37125 6.81734375 10.7425 7.8846875 11.125 8.984375 C12 12 12 12 12 16 C12.66 16 13.32 16 14 16 C14.12117188 15.43152344 14.24234375 14.86304687 14.3671875 14.27734375 C15.41322054 9.45754536 16.59204484 4.7267066 18 0 C20.64 0 23.28 0 26 0 C20.234375 20.765625 20.234375 20.765625 17 24 C15.48071962 24.07179964 13.95832518 24.08392007 12.4375 24.0625 C11.61121094 24.05347656 10.78492188 24.04445313 9.93359375 24.03515625 C8.97646484 24.01775391 8.97646484 24.01775391 8 24 C6.65853506 20.56561785 5.32824095 17.12701583 4 13.6875 C3.6184375 12.71103516 3.236875 11.73457031 2.84375 10.72851562 C2.4828125 9.79072266 2.121875 8.85292969 1.75 7.88671875 C1.41484375 7.02264404 1.0796875 6.15856934 0.734375 5.26831055 C0 3 0 3 0 0 Z " fill="#00007C" transform="translate(295,55)"/>
<path d="M0 0 C2.64 0 5.28 0 8 0 C8 7.92 8 15.84 8 24 C5.36 24 2.72 24 0 24 C0 16.08 0 8.16 0 0 Z " fill="#8484F7" transform="translate(334,55)"/>
<path d="M0 0 C5.56818182 0.56818182 5.56818182 0.56818182 7 2 C7.1875 4.4375 7.1875 4.4375 7 7 C5 9 5 9 2.5 9.25 C0 9 0 9 -2 7 C-2.25 4.5 -2.25 4.5 -2 2 C-1.34 1.34 -0.68 0.68 0 0 Z " fill="#00007C" transform="translate(322,71)"/>
<path d="M0 0 C3.0625 -0.25 3.0625 -0.25 6 0 C7 1 7 1 7.125 4 C7 7 7 7 6 8 C4.00041636 8.04080783 1.99954746 8.04254356 0 8 C-1.125 5.6875 -1.125 5.6875 -2 3 C-1.34 2.01 -0.68 1.02 0 0 Z " fill="#8484F6" transform="translate(335,44)"/>
<path d="M0 0 C-0.33 0.99 -0.66 1.98 -1 3 C1.64 3.33 4.28 3.66 7 4 C3.47320901 6.35119399 1.97120515 6.21443452 -2.1875 6.125 C-3.27417969 6.10695313 -4.36085938 6.08890625 -5.48046875 6.0703125 C-6.72763672 6.03550781 -6.72763672 6.03550781 -8 6 C-8 5.34 -8 4.68 -8 4 C-2.58823529 0 -2.58823529 0 0 0 Z " fill="#8585C2" transform="translate(15,100)"/>
<path d="M0 0 C0.66 0.33 1.32 0.66 2 1 C0.89718873 2.27200971 -0.20730769 3.54255853 -1.3125 4.8125 C-1.92738281 5.52019531 -2.54226562 6.22789063 -3.17578125 6.95703125 C-6.44911047 10.6228796 -6.44911047 10.6228796 -8 12 C-8.66 12 -9.32 12 -10 12 C-8.79618552 9.50638429 -7.54571278 7.31856917 -6 5 C-5.34 5 -4.68 5 -4 5 C-4 4.34 -4 3.68 -4 3 C-2 1.375 -2 1.375 0 0 Z " fill="#4F4FA2" transform="translate(25,20)"/>
<path d="M0 0 C1.875 0.25 1.875 0.25 4 1 C5.25 3.0625 5.25 3.0625 6 5 C-2.57142857 5.28571429 -2.57142857 5.28571429 -6 3 C-3.36 3 -0.72 3 2 3 C2 2.34 2 1.68 2 1 C1.34 0.67 0.68 0.34 0 0 Z " fill="#B7B7F9" transform="translate(136,112)"/>
<path d="M0 0 C0 1.66666667 0 3.33333333 0 5 C-1.98 5 -3.96 5 -6 5 C-3.74193548 0 -3.74193548 0 0 0 Z " fill="#48489E" transform="translate(15,100)"/>
</svg>
